<svg id="Group_722" data-name="Group 722" xmlns="http://www.w3.org/2000/svg" xmlns:xlink="http://www.w3.org/1999/xlink" width="30.16" height="35.626" viewBox="0 0 30.16 35.626">
  <defs>
    <clipPath id="clip-path">
      <rect id="Rectangle_26" data-name="Rectangle 26" width="30.16" height="35.626" fill="#333"/>
    </clipPath>
  </defs>
  <g id="Group_721" data-name="Group 721" clip-path="url(#clip-path)">
    <path id="Path_558" data-name="Path 558" d="M71.092,172.252a2.407,2.407,0,0,1-1.586-1.191,2.537,2.537,0,0,1-.241-1.212c-.007-1.45-.026-2.9-.022-4.349,0-.264-.073-.325-.331-.326a7.144,7.144,0,0,1-1.937-.093,2.267,2.267,0,0,1-1.653-2.088c-.026-1-.014-1.994-.014-2.992,0-3.688,0-7.376-.009-11.064,0-.32.092-.368.383-.368q9.445.013,18.89,0c.284,0,.387.038.386.364-.013,4.581-.007,9.162-.01,13.743a2.318,2.318,0,0,1-1.8,2.44,6.871,6.871,0,0,1-1.733.06c-.3-.007-.412.056-.408.391.021,1.438.015,2.876.007,4.314a2.191,2.191,0,0,1-1.708,2.306c-.109.072-.247-.021-.354.064h-.278c-.128-.074-.267-.019-.4-.036-.728.03-1.557-.87-1.7-1.654a4.822,4.822,0,0,1-.09-.9q.005-1.965,0-3.93c0-.457-.019-.475-.465-.476q-.9,0-1.808,0c-.408,0-.439.03-.44.433,0,1.345,0,2.689,0,4.034a2.915,2.915,0,0,1-.258,1.319,1.98,1.98,0,0,1-1.723,1.207Z" transform="translate(-60.049 -136.626)" fill="#333"/>
    <path id="Path_559" data-name="Path 559" d="M227.274,442.267a.074.074,0,0,0-.008-.062.412.412,0,0,1,.356.062Z" transform="translate(-208.994 -406.64)" fill="#333"/>
    <path id="Path_560" data-name="Path 560" d="M235.15,442.268a.416.416,0,0,1,.354-.064.056.056,0,0,0-.006.064Z" transform="translate(-216.244 -406.641)" fill="#333"/>
    <path id="Path_561" data-name="Path 561" d="M324.772,150.36c0,1.472,0,2.943,0,4.415a2.2,2.2,0,0,1-1.7,2.316,2.157,2.157,0,0,1-2.661-1.9c-.047-.82-.03-1.644-.031-2.467,0-2.271.014-4.543-.007-6.814a2.206,2.206,0,1,1,4.4,0c-.015,1.483,0,2.967,0,4.45" transform="translate(-294.615 -132.02)" fill="#333"/>
    <path id="Path_562" data-name="Path 562" d="M4.37,150.294c0,1.61.03,3.221-.01,4.83a2.091,2.091,0,0,1-2.105,1.946,2.159,2.159,0,0,1-2.212-1.883c-.026-.253-.04-.508-.04-.762q0-4.276,0-8.551A2.223,2.223,0,0,1,1.267,143.7a2.149,2.149,0,0,1,3.092,1.764c.06,1.608.014,3.22.014,4.83h0" transform="translate(0 -131.944)" fill="#333"/>
    <path id="Path_563" data-name="Path 563" d="M84.176,10.869a8.981,8.981,0,0,0-.188-1.479,8.976,8.976,0,0,0-4.536-5.939c-.24-.137-.3-.223-.151-.48.455-.791.88-1.6,1.315-2.4.1-.18.185-.371-.054-.511-.259-.152-.378.032-.488.222-.029.05-.054.1-.082.153-.416.761-.842,1.516-1.24,2.286-.122.237-.231.268-.468.168a9.906,9.906,0,0,0-3.054-.737,10.491,10.491,0,0,0-5.026.772c-.181.076-.255.03-.341-.134-.345-.654-.7-1.3-1.059-1.95C68.689.624,68.576.408,68.455.2c-.1-.169-.232-.26-.431-.148s-.182.273-.1.447c.041.083.086.163.13.245.418.772.831,1.548,1.26,2.315.1.17.085.249-.091.339a6.88,6.88,0,0,0-.777.457,8.738,8.738,0,0,0-4.059,6.957c-.018.315.065.381.371.38,3.164-.012,6.328-.007,9.493-.007q4.8,0,9.6.005c.249,0,.345-.042.327-.318M69.769,7.589a.828.828,0,0,1-.807-.826.846.846,0,0,1,.807-.83.863.863,0,0,1,.832.848.848.848,0,0,1-.832.808m9.044,0a.847.847,0,0,1-.837-.8.863.863,0,0,1,.826-.854.843.843,0,0,1,.812.825.826.826,0,0,1-.8.831" transform="translate(-59.21 0)" fill="#333"/>
  </g>
</svg>
