<svg xmlns="http://www.w3.org/2000/svg" width="57.25" height="57.257" viewBox="0 0 57.25 57.257">
  <g id="Group_802" data-name="Group 802" transform="translate(-309 -308.5)">
    <path id="Path_2788" data-name="Path 2788" d="M366.25,323.148v42.043a1.247,1.247,0,0,1-1.234.567q-27.391-.013-54.781-.008c-1.008,0-1.235-.231-1.235-1.257q0-15.764,0-31.527a2.021,2.021,0,0,1,2.288-2.305q4.891,0,9.782,0h.7v-.733q0-5.646,0-11.292a2.694,2.694,0,0,1,.036-.611.8.8,0,0,1,.9-.67.773.773,0,0,1,.745.77c.019.222.012.447.012.67q0,22.248,0,44.5v.742h7.728v-.758q0-5.618,0-11.236a2.016,2.016,0,0,1,2.281-2.262q4.109,0,8.217,0c1.649,0,2.372.729,2.373,2.4q0,5.59,0,11.18v.685H351.8V363.4c0-2.217,0-4.435,0-6.652,0-.417.045-.838.481-.972.4-.124.406-.377.374-.676s-.019-.789-.164-.846c-.686-.268-.692-.786-.692-1.369q.007-20.962,0-41.924c0-.784,0-.786-.766-.785l-26.831.01c-.741,0-.743,0-.744.751,0,1.342.009,2.683-.006,4.025-.008.709-.555,1.112-1.143.868a.909.909,0,0,1-.546-.95c0-1.3.038-2.61-.01-3.912a2.243,2.243,0,0,1,1.558-2.472h28.625a2.272,2.272,0,0,1,1.559,2.467c-.036,3.348-.013,6.7-.013,10.046v.667h.708c3.181,0,6.363.039,9.544-.02A2.345,2.345,0,0,1,366.25,323.148Zm-23.932,40.878c.011-.211.028-.393.028-.575,0-3.762-.008-7.524.012-11.286,0-.538-.163-.7-.7-.7q-4.022.048-8.044.03c-.536,0-.7.164-.7.7.02,3.743.01,7.487.012,11.23,0,.2.023.392.036.6Zm16.711-11.005c-.782,0-1.564.007-2.346,0-.315,0-.486.081-.481.438.014,1.005.009,2.01,0,3.016,0,.315.143.424.444.422q2.373-.009,4.747,0c.337,0,.466-.145.463-.471-.007-.968-.014-1.936,0-2.9.007-.4-.177-.511-.544-.5C360.556,353.032,359.792,353.021,359.029,353.021Zm0-26.952c-.763,0-1.527.018-2.289-.007-.422-.014-.549.147-.539.554.023.93.018,1.861,0,2.792-.006.37.1.543.506.539q2.317-.022,4.635,0c.393,0,.525-.159.519-.534-.013-.93-.018-1.862,0-2.792.008-.406-.127-.57-.547-.557C360.554,326.086,359.791,326.069,359.027,326.069Zm.01,8.959c-.763,0-1.527.01-2.289,0-.362-.007-.555.091-.547.5.018.967.013,1.936,0,2.9,0,.318.086.482.439.48q2.373-.015,4.746,0c.377,0,.478-.172.473-.513-.012-.949-.014-1.9,0-2.848.006-.388-.157-.531-.535-.523C360.564,335.039,359.8,335.029,359.038,335.028Zm-42.865,3.865c.8,0,1.6-.008,2.4,0,.326,0,.472-.109.467-.453-.013-.967-.016-1.934,0-2.9.007-.4-.163-.516-.536-.513q-2.287.017-4.575,0c-.379,0-.539.145-.535.528q.017,1.423,0,2.845c0,.356.128.5.491.5C314.647,338.883,315.41,338.894,316.173,338.894Zm.038,17.99c.763,0,1.526-.012,2.288.005.366.008.55-.093.542-.5-.019-.967-.014-1.935,0-2.9,0-.335-.123-.463-.459-.461q-2.344.014-4.688,0c-.358,0-.5.133-.5.492q.018,1.423,0,2.846c-.005.381.143.534.529.526C314.685,356.871,315.448,356.884,316.211,356.884Zm42.827-12.838c-.782,0-1.564.008-2.345,0-.351-.006-.5.117-.492.488.019.949.021,1.9,0,2.847-.009.4.152.527.523.525q2.289-.011,4.579,0c.394,0,.572-.135.563-.556-.022-.912-.025-1.825,0-2.736.013-.453-.173-.584-.594-.572C360.527,344.06,359.782,344.045,359.038,344.046Zm-42.826,3.833c.764,0,1.528-.007,2.292,0,.36,0,.548-.1.538-.509-.022-.95-.017-1.9,0-2.85.005-.338-.126-.467-.458-.465q-2.347.011-4.695,0c-.358,0-.5.14-.492.5.014.931.016,1.863,0,2.794-.007.389.151.537.527.531C314.684,347.871,315.448,347.878,316.212,347.879Z" fill="#cbcbcb"/>
    <path id="Path_2789" data-name="Path 2789" d="M431.859,405.934c-.95,0-1.9.006-2.85,0a2.028,2.028,0,0,1-2.228-2.215c-.005-1.006-.011-2.012,0-3.017a1.974,1.974,0,0,1,2.056-2.1q3.072-.039,6.146,0A1.932,1.932,0,0,1,437,400.614q.042,1.647,0,3.3a1.958,1.958,0,0,1-2.07,2.02C433.907,405.948,432.883,405.933,431.859,405.934Zm.079-1.733v.031c.912,0,1.824-.016,2.736.007.443.011.644-.118.63-.6-.027-.93-.022-1.861,0-2.791.009-.41-.145-.563-.552-.558q-2.847.035-5.693.037c-.384,0-.53.146-.524.528.015.93.017,1.861,0,2.792-.008.412.159.563.561.556C430.04,404.191,430.989,404.2,431.938,404.2Z" transform="translate(-100.216 -76.652)" fill="#cbcbcb"/>
    <path id="Path_2790" data-name="Path 2790" d="M511.63,405.952c-.986,0-1.973.01-2.959,0a1.981,1.981,0,0,1-2.131-2.13q-.021-1.535,0-3.071a1.971,1.971,0,0,1,2.124-2.134q2.987-.023,5.975,0a1.98,1.98,0,0,1,2.11,2.1q.023,1.563,0,3.127a1.99,1.99,0,0,1-2.1,2.107C513.641,405.964,512.636,405.952,511.63,405.952Zm.013-1.733v.031c.95,0,1.9-.011,2.85.005.411.007.565-.161.559-.565-.015-.95-.013-1.9,0-2.849,0-.384-.159-.532-.536-.528q-2.877.03-5.754.037c-.356,0-.5.135-.489.5.016.95.018,1.9,0,2.849-.008.392.149.531.524.527C509.744,404.211,510.694,404.218,511.644,404.218Z" transform="translate(-168.081 -76.67)" fill="#cbcbcb"/>
    <path id="Path_2791" data-name="Path 2791" d="M431.913,526.549c-.987,0-1.974.006-2.961,0a1.982,1.982,0,0,1-2.169-2.143q-.013-1.509,0-3.017a2,2,0,0,1,2.171-2.148q2.961-.007,5.922,0A1.957,1.957,0,0,1,437,521.307q.033,1.592,0,3.184a1.936,1.936,0,0,1-2.075,2.056C433.924,526.558,432.918,526.549,431.913,526.549Zm-.033-1.729v.022c.968,0,1.937-.009,2.9,0,.342,0,.519-.09.514-.468-.014-.987-.012-1.974,0-2.961,0-.363-.152-.488-.505-.486q-2.877.021-5.754.014c-.358,0-.507.136-.5.492.008.968.01,1.937,0,2.9,0,.36.138.49.5.484C429.981,524.808,430.931,524.82,431.88,524.82Z" transform="translate(-100.217 -179.318)" fill="#cbcbcb"/>
    <path id="Path_2792" data-name="Path 2792" d="M431.858,345.76c-1.006,0-2.011.009-3.017,0a1.956,1.956,0,0,1-2.079-2.061q-.023-1.592,0-3.184a1.97,1.97,0,0,1,2.091-2.055q3.045-.011,6.09,0a1.915,1.915,0,0,1,2.03,1.927c.04,1.153.04,2.31,0,3.463a1.893,1.893,0,0,1-1.985,1.908C433.944,345.772,432.9,345.76,431.858,345.76Zm.015-1.723v.019c.969,0,1.937-.01,2.906.005.357.006.5-.12.5-.484q-.019-1.453,0-2.906c.005-.377-.128-.53-.521-.527q-2.85.027-5.7.012c-.428,0-.552.172-.546.565.013.913.016,1.826,0,2.738-.008.417.111.6.571.586C430.01,344.014,430.942,344.037,431.873,344.037Z" transform="translate(-100.196 -25.487)" fill="#cbcbcb"/>
    <path id="Path_2793" data-name="Path 2793" d="M431.9,459.064c1.006,0,2.011-.007,3.017,0a1.913,1.913,0,0,1,2.043,1.966q.05,1.675,0,3.352a1.923,1.923,0,0,1-2.038,1.978q-3.073.013-6.145,0a1.95,1.95,0,0,1-2.03-2q-.037-1.647,0-3.3a1.94,1.94,0,0,1,2.024-2C429.813,459.054,430.856,459.064,431.9,459.064Zm-.033,5.59v.014c.932,0,1.864-.024,2.794.01.482.017.614-.17.6-.618q-.035-1.341,0-2.683c.012-.443-.106-.629-.593-.622-1.881.03-3.763.03-5.645.021-.383,0-.539.118-.533.508.014.95.016,1.9,0,2.85-.008.429.187.535.58.526C430,464.639,430.935,464.654,431.866,464.654Z" transform="translate(-100.177 -128.113)" fill="#cbcbcb"/>
    <path id="Path_2794" data-name="Path 2794" d="M511.575,466.357c-1.005,0-2.01.006-3.015,0a1.924,1.924,0,0,1-2.052-1.96c-.034-1.134-.036-2.271,0-3.405a1.9,1.9,0,0,1,2.017-1.93q3.071-.015,6.142,0a1.927,1.927,0,0,1,2.035,1.98c.029,1.116.032,2.234,0,3.35a1.944,1.944,0,0,1-2.056,1.966C513.622,466.363,512.6,466.357,511.575,466.357Zm.054-5.6v.018c-.967,0-1.934.011-2.9-.006-.356-.006-.5.11-.5.477.015.967.013,1.934,0,2.9,0,.346.105.5.48.5q2.9-.011,5.8.014c.372,0,.494-.16.492-.5-.006-.967-.01-1.935,0-2.9.005-.388-.154-.518-.536-.51C513.527,460.771,512.578,460.758,511.629,460.758Z" transform="translate(-168.04 -128.106)" fill="#cbcbcb"/>
    <path id="Path_2795" data-name="Path 2795" d="M511.618,345.767c-1.005,0-2.01.007-3.015,0a1.932,1.932,0,0,1-2.079-2.047q-.032-1.59,0-3.182a1.953,1.953,0,0,1,2.117-2.072q2.987-.007,5.974,0a1.968,1.968,0,0,1,2.115,2.082c.016,1.042.015,2.085,0,3.127a1.957,1.957,0,0,1-2.1,2.093C513.628,345.774,512.623,345.767,511.618,345.767Zm-.063-1.724v.019c.986,0,1.972-.013,2.957.007.394.008.526-.149.522-.524q-.019-1.423,0-2.846c.006-.408-.156-.552-.566-.548q-2.845.029-5.691.014c-.388,0-.529.138-.523.522.015.948.017,1.9,0,2.845-.007.381.117.528.512.518C509.7,344.028,510.625,344.043,511.555,344.043Z" transform="translate(-168.063 -25.494)" fill="#cbcbcb"/>
    <path id="Path_2796" data-name="Path 2796" d="M511.609,526.546c-.986,0-1.973.006-2.959,0a1.943,1.943,0,0,1-2.126-2.059q-.031-1.591,0-3.182a1.956,1.956,0,0,1,2.126-2.066q2.987-.008,5.974,0a1.975,1.975,0,0,1,2.106,2.094q.023,1.563,0,3.127a1.959,1.959,0,0,1-2.107,2.086C513.619,526.554,512.614,526.546,511.609,526.546Zm-.055-1.729v.022c.985,0,1.971-.013,2.956.006.391.007.528-.146.523-.523q-.019-1.422,0-2.845c.006-.406-.155-.555-.565-.551q-2.844.029-5.689.015c-.384,0-.532.134-.525.52.016.948.017,1.9,0,2.845-.007.382.119.528.513.518C509.694,524.8,510.624,524.817,511.554,524.817Z" transform="translate(-168.062 -179.315)" fill="#cbcbcb"/>
  </g>
</svg>
