<svg id="Group_734" data-name="Group 734" xmlns="http://www.w3.org/2000/svg" width="15.547" height="17.283" viewBox="0 0 15.547 17.283">
  <path id="Path_581" data-name="Path 581" d="M340.439,308.5h.439a.935.935,0,0,1,.593,1.154h.981a1.272,1.272,0,0,1,1.372,1.366q0,6.7,0,13.4a1.7,1.7,0,0,1-.03.368,1.262,1.262,0,0,1-1.306,1H330.93c-.472,0-.945,0-1.417,0a1.238,1.238,0,0,1-1.167-.865,1.7,1.7,0,0,1-.066-.5q-.005-6.7,0-13.4c0-.056,0-.113,0-.169a1.206,1.206,0,0,1,.792-1.1,1.718,1.718,0,0,1,.559-.1c.324-.015.649,0,.965,0a.245.245,0,0,0,.02-.049.806.806,0,0,0,0-.118.868.868,0,0,1,.6-.986h.439c.566.18.669.619.608,1.144h7.552c0-.08,0-.152,0-.224a1.955,1.955,0,0,1,.033-.367A.807.807,0,0,1,340.439,308.5Zm-11.645,5.28c0,.066-.01.1-.01.143q0,4.767,0,9.535a.754.754,0,0,0,.819.8h9.72a.584.584,0,0,0,.642-.651c0-.512,0-1.024,0-1.536a1.084,1.084,0,0,1,1.158-1.162c.5,0,1,0,1.5,0,.477,0,.69-.212.69-.689q0-3.122,0-6.244v-.2h-10.6a1.461,1.461,0,0,1-.235-.011.246.246,0,0,1-.011-.481,1.168,1.168,0,0,1,.235-.014h10.6c0-.071.009-.12.009-.17,0-.7,0-1.406,0-2.11a.766.766,0,0,0-.843-.834q-.987,0-1.975,0c-.053,0-.107,0-.17.008,0,.229,0,.436,0,.644,0,.261.034.3.295.361a.252.252,0,0,1-.056.5.662.662,0,0,1-.15-.017.755.755,0,0,1-.593-.726c-.006-.251,0-.5,0-.756h-8.7c0,.222,0,.429,0,.637,0,.249.048.305.3.362a.253.253,0,0,1,.216.277.246.246,0,0,1-.268.223.654.654,0,0,1-.15-.017.773.773,0,0,1-.6-.776c0-.234,0-.469,0-.721h-.978a.771.771,0,0,0-.86.851q0,1.038,0,2.076c0,.059.005.119.008.186h2.6a.778.778,0,0,1,.2.017.247.247,0,0,1-.006.473.822.822,0,0,1-.2.015h-2.594Zm14.524,8.011c-.077.072-.121.112-.164.154-.788.787-1.579,1.571-2.36,2.365a1.474,1.474,0,0,1-1.115.461q-4.919-.009-9.838,0a1.658,1.658,0,0,1-1.059-.255,1.846,1.846,0,0,0,.032.21.76.76,0,0,0,.778.549H342.5a.755.755,0,0,0,.816-.807c0-.422,0-.844,0-1.266C343.318,322.747,343.318,322.292,343.318,321.791Zm-2.842,2.05,2.423-2.423h-.541c-.439,0-.877,0-1.315,0a.545.545,0,0,0-.562.518C340.467,322.584,340.477,323.229,340.477,323.842Zm-9.353-14.2h.661c-.054-.207.091-.453-.14-.583a.454.454,0,0,0-.379,0C331.036,309.182,331.158,309.427,331.123,309.641Zm9.851,0c-.03-.208.1-.456-.14-.585a.45.45,0,0,0-.391.015c-.209.14-.083.375-.113.584h.547A.874.874,0,0,0,340.974,309.64Z" transform="translate(-328.278 -308.5)" fill="#055b28"/>
  <path id="Path_582" data-name="Path 582" d="M363.064,519.952c-.191,0-.383,0-.574,0a.477.477,0,0,1-.512-.487q-.012-.607,0-1.215a.472.472,0,0,1,.48-.487q.607-.018,1.215,0a.483.483,0,0,1,.492.5c.01.4.01.8,0,1.2a.487.487,0,0,1-.527.494C363.447,519.954,363.255,519.953,363.064,519.952Zm.585-.516v-1.162h-1.155v1.162Z" transform="translate(-360.456 -508.337)" fill="#055b28"/>
  <path id="Path_583" data-name="Path 583" d="M515.923,519.956c-.2,0-.405,0-.608,0a.461.461,0,0,1-.483-.443c-.016-.432-.016-.866,0-1.3a.461.461,0,0,1,.482-.448c.4-.01.81-.012,1.215,0a.478.478,0,0,1,.483.5q.011.591,0,1.181a.483.483,0,0,1-.514.5C516.306,519.958,516.115,519.956,515.923,519.956Zm-.585-1.68v1.164h1.156v-1.164Z" transform="translate(-506.425 -508.341)" fill="#055b28"/>
  <path id="Path_584" data-name="Path 584" d="M439.492,519.955c-.2,0-.394,0-.591,0a.466.466,0,0,1-.487-.458q-.019-.632,0-1.265a.466.466,0,0,1,.483-.465c.4-.011.81-.012,1.215,0a.481.481,0,0,1,.486.5q.013.59,0,1.181a.487.487,0,0,1-.532.505C439.875,519.957,439.684,519.955,439.492,519.955Zm-.567-1.678v1.163h1.157v-1.163Z" transform="translate(-433.45 -508.34)" fill="#055b28"/>
  <path id="Path_585" data-name="Path 585" d="M363.062,450.442c-.186,0-.371,0-.557,0a.489.489,0,0,1-.529-.525q-.008-.574,0-1.147a.479.479,0,0,1,.5-.517q.59-.015,1.181,0a.485.485,0,0,1,.508.515c.007.388.008.776,0,1.164a.489.489,0,0,1-.513.509C363.456,450.447,363.259,450.441,363.062,450.442Zm.587-.514v-1.162H362.5v1.162Z" transform="translate(-360.456 -441.956)" fill="#055b28"/>
  <path id="Path_586" data-name="Path 586" d="M438.407,449.342c0-.191,0-.383,0-.574a.481.481,0,0,1,.5-.517q.59-.015,1.181,0a.482.482,0,0,1,.507.514q.011.582,0,1.164a.484.484,0,0,1-.512.509q-.582.011-1.164,0a.483.483,0,0,1-.513-.507C438.4,449.736,438.408,449.539,438.407,449.342Zm1.673.582v-1.159h-1.158v1.159Z" transform="translate(-433.449 -441.955)" fill="#055b28"/>
  <path id="Path_587" data-name="Path 587" d="M593.362,449.363c0,.191,0,.383,0,.574a.482.482,0,0,1-.5.519q-.6.012-1.2,0a.464.464,0,0,1-.486-.461c-.016-.421-.016-.844,0-1.265a.456.456,0,0,1,.471-.458q.615-.019,1.231,0a.476.476,0,0,1,.482.5c0,.011,0,.022,0,.034Q593.362,449.085,593.362,449.363Zm-1.687-.582c0,.372,0,.726,0,1.079,0,.03.046.086.071.086.363.006.726,0,1.1,0v-1.169Z" transform="translate(-579.335 -441.973)" fill="#055b28"/>
  <path id="Path_588" data-name="Path 588" d="M592.238,521.693c-.2,0-.394.005-.591,0a.482.482,0,0,1-.508-.5q-.018-.6,0-1.2a.474.474,0,0,1,.492-.494q.6-.017,1.2,0a.479.479,0,0,1,.5.519q.007.573,0,1.147a.487.487,0,0,1-.515.522C592.621,521.7,592.43,521.693,592.238,521.693Zm.574-1.673h-1.159v1.158h1.159Z" transform="translate(-579.301 -510)" fill="#055b28"/>
  <path id="Path_589" data-name="Path 589" d="M516.931,449.349c0,.191,0,.383,0,.574a.483.483,0,0,1-.5.517q-.59.012-1.181,0a.479.479,0,0,1-.5-.5q-.016-.6,0-1.2a.472.472,0,0,1,.493-.491q.6-.016,1.2,0a.479.479,0,0,1,.5.505C516.936,448.956,516.931,449.152,516.931,449.349Zm-.521.577v-1.157h-1.154v1.157Z" transform="translate(-506.343 -441.956)" fill="#055b28"/>
  <path id="Path_590" data-name="Path 590" d="M363.056,589.647c-.191,0-.382,0-.573,0a.483.483,0,0,1-.506-.494q-.011-.606,0-1.213a.476.476,0,0,1,.5-.485q.589-.008,1.179,0a.487.487,0,0,1,.51.493c.011.4.01.8,0,1.2a.493.493,0,0,1-.52.5C363.449,589.65,363.253,589.647,363.056,589.647Zm.594-.514v-1.165h-1.159v1.165Z" transform="translate(-360.455 -574.897)" fill="#055b28"/>
  <path id="Path_591" data-name="Path 591" d="M439.477,587.481c.185,0,.371,0,.556,0a.488.488,0,0,1,.524.5q.015.6,0,1.2a.488.488,0,0,1-.52.5q-.573,0-1.145,0a.483.483,0,0,1-.521-.5q-.014-.6,0-1.2a.483.483,0,0,1,.518-.5C439.084,587.478,439.28,587.481,439.477,587.481Zm.569.516h-1.159v1.161h1.159Z" transform="translate(-433.409 -574.925)" fill="#055b28"/>
  <path id="Path_592" data-name="Path 592" d="M516.411,589.061v-1.168h-1.178c0,.106.005.212,0,.317a.24.24,0,0,1-.239.252.247.247,0,0,1-.261-.25c0-.011,0-.022,0-.034-.028-.523.05-.848.76-.808.3.016.6,0,.894,0a.494.494,0,0,1,.538.535q.007.557,0,1.114a.5.5,0,0,1-.546.544c-.377,0-.754,0-1.131,0a.491.491,0,0,1-.508-.442.243.243,0,0,1,.173-.29.247.247,0,0,1,.307.142c.02.036.066.08.1.081C515.676,589.063,516.035,589.061,516.411,589.061Z" transform="translate(-506.333 -574.818)" fill="#055b28"/>
</svg>
