<svg id="calendar" xmlns="http://www.w3.org/2000/svg" width="18.647" height="18.647" viewBox="0 0 18.647 18.647">
  <path id="Path_3427" data-name="Path 3427" d="M0,16.993a3.889,3.889,0,0,0,3.885,3.885H14.762a3.889,3.889,0,0,0,3.885-3.885V10H0Zm13.208-3.5a1.165,1.165,0,1,1-1.165,1.165A1.165,1.165,0,0,1,13.208,13.5Zm-3.885,0a1.165,1.165,0,1,1-1.165,1.165A1.165,1.165,0,0,1,9.323,13.5Zm-3.885,0a1.165,1.165,0,1,1-1.165,1.165A1.165,1.165,0,0,1,5.439,13.5Z" transform="translate(0 -2.23)" fill="#696B7E"/>
  <path id="Path_3428" data-name="Path 3428" d="M14.762,1.554h-.777V.777a.777.777,0,1,0-1.554,0v.777H6.216V.777a.777.777,0,0,0-1.554,0v.777H3.885A3.889,3.889,0,0,0,0,5.439v.777H18.647V5.439A3.889,3.889,0,0,0,14.762,1.554Z" fill="#696B7E"/>
</svg>
