<svg xmlns="http://www.w3.org/2000/svg" width="73.333" height="89.401" viewBox="0 0 73.333 89.401">
  <g id="Group_806" data-name="Group 806" transform="translate(-343.503 -308.5)">
    <path id="Path_2797" data-name="Path 2797" d="M487.2,308.5a13.724,13.724,0,0,1,4.765,2.01,10.468,10.468,0,0,1-7.668,18.82c-.158-.023-.32-.018-.66-.036,1.981,2.109,2.221,4.569,2.185,7.164-.067,4.828-.019,9.658-.019,14.487V352a5.68,5.68,0,0,1-.561-.334,27.855,27.855,0,0,0-9.209-4.83c-.612-.184-.722-.477-.719-1.047.023-3.811,0-7.622.015-11.433.008-2.354.079-4.71-.966-7.135l4.361-.5-.4-.433a10.065,10.065,0,0,1-2.469-10.481,10.192,10.192,0,0,1,8.077-7.139,3.833,3.833,0,0,0,.476-.169Z" transform="translate(-100.394)" fill="#055b28"/>
    <path id="Path_2798" data-name="Path 2798" d="M367.08,490A23.572,23.572,0,1,1,343.5,513.524,23.607,23.607,0,0,1,367.08,490Zm13.09,23.564a13.1,13.1,0,1,0-13.088,13.1A13.118,13.118,0,0,0,380.17,513.567Z" transform="translate(0 -139.246)" fill="#055b28"/>
    <path id="Path_2799" data-name="Path 2799" d="M562.926,543.928c.907,0,1.716-.012,2.525,0a2.617,2.617,0,1,1,.017,5.231c-.81.017-1.622,0-2.484,0-.37-5.172-3.006-8.56-7.916-10.2V527.09c0-1.28.006-2.561,0-3.841a2.648,2.648,0,0,0-2.864-2.891c-2.1-.009-4.19.017-6.285-.023a1.108,1.108,0,0,1-.85-.468,30.975,30.975,0,0,0-4.177-7.027,1.84,1.84,0,0,1-.141-.3c.324-.015.6-.038.874-.038q6.46,0,12.92,0c5.055,0,8.379,3.309,8.381,8.345q.006,10.956,0,21.912Z" transform="translate(-151.324 -156.502)" fill="#055b28"/>
    <path id="Path_2800" data-name="Path 2800" d="M404.156,397.334h-5.17v-.926q0-6.061,0-12.123c0-2.046-1.009-3.059-3.042-3.062-1.57,0-3.14.014-4.709-.005a2.636,2.636,0,0,1-2.722-2.591,2.6,2.6,0,0,1,2.672-2.632,51.785,51.785,0,0,1,6.611.183,7.527,7.527,0,0,1,6.4,7.233c.09,4.533.028,9.07.029,13.605A1.606,1.606,0,0,1,404.156,397.334Z" transform="translate(-34.531 -51.769)" fill="#055b28"/>
    <path id="Path_2801" data-name="Path 2801" d="M578.982,652.714a5.236,5.236,0,1,1-5.224-5.2A5.244,5.244,0,0,1,578.982,652.714Z" transform="translate(-172.622 -260.083)" fill="#055b28"/>
    <path id="Path_2802" data-name="Path 2802" d="M561.593,568.907h3.019v13.178l-4.5,2.492A29.124,29.124,0,0,0,561.593,568.907Z" transform="translate(-166.176 -199.779)" fill="#055b28"/>
    <path id="Path_2803" data-name="Path 2803" d="M411.011,565.323a7.855,7.855,0,1,1,7.77,7.9A7.87,7.87,0,0,1,411.011,565.323Z" transform="translate(-51.791 -191.037)" fill="#055b28"/>
  </g>
</svg>
