<svg id="Group_1401" data-name="Group 1401" xmlns="http://www.w3.org/2000/svg" xmlns:xlink="http://www.w3.org/1999/xlink" width="33.235" height="37.12" viewBox="0 0 33.235 37.12">
  <defs>
    <clipPath id="clip-path">
      <rect id="Rectangle_243" data-name="Rectangle 243" width="33.235" height="37.12" fill="#0d8c60"/>
    </clipPath>
  </defs>
  <g id="Group_1401-2" data-name="Group 1401" clip-path="url(#clip-path)">
    <path id="Path_935" data-name="Path 935" d="M15.4,37.119a6.829,6.829,0,0,0-1.319-.273,11.356,11.356,0,0,1-7.085-4.894A11.04,11.04,0,0,1,5.6,29.023c-.165-.533-.02-.931.406-1.081s.8.09.968.621a9.786,9.786,0,0,0,3.414,4.958A9.66,9.66,0,0,0,18,35.542a9.6,9.6,0,0,0,7.174-4.856,9.56,9.56,0,0,0,.39-9.327,9.738,9.738,0,0,0-6.854-5.468.651.651,0,0,0-.129,0c0,.627.012,1.254-.006,1.881-.006.221.144.223.269.261a7.872,7.872,0,0,1,4.3,3.141,7.975,7.975,0,1,1-9.887-2.76.558.558,0,0,0,.4-.632c-.031-.552-.009-1.107-.009-1.688A10.074,10.074,0,0,0,6.971,22.8c-.178.6-.546.866-.969.727-.472-.154-.613-.533-.41-1.163a11.26,11.26,0,0,1,7.726-7.675c.361-.113.376-.32.4-.6a11.131,11.131,0,0,1,1.688-5.023,4.917,4.917,0,0,1,1.868-1.631c-.013-.148-.15-.2-.236-.289a4.2,4.2,0,1,1,7.135-3.6A4.08,4.08,0,0,1,22.4,7.657c-.184.134-.224.183-.02.345a4.753,4.753,0,0,1,1.861,3.87c.009,1.656,0,3.311,0,4.967a1.13,1.13,0,0,0,1.01,1,26.366,26.366,0,0,1,2.753.054,5.2,5.2,0,0,1,4.273,2.95c.867,1.761,1.457,3.643,2.189,5.464.233.581.457,1.166.678,1.752a.439.439,0,0,0,.343.313A3.67,3.67,0,0,1,38.307,32.5a.738.738,0,0,1-.709.694c-.108.01-.217,0-.326,0q-5.874,0-11.747-.005a.724.724,0,0,0-.6.249,11.348,11.348,0,0,1-5.754,3.364c-.455.113-.927.16-1.391.236-.056.009-.123-.009-.141.072ZM13.657,19.873c-.059,0-.086-.008-.1,0a6.349,6.349,0,0,0-3.474,5.177,6.51,6.51,0,1,0,12.858-.679A6.319,6.319,0,0,0,19,19.617c-.412-.177-.416-.167-.416.263,0,.387,0,.773,0,1.16a2.468,2.468,0,0,1-.5,1.521,2.462,2.462,0,0,1-4.43-1.435c-.015-.417,0-.835,0-1.252m9.135-3.818c0-.174,0-.28,0-.385,0-1.329.04-2.661-.019-3.987a3.379,3.379,0,0,0-6.293-1.608A10,10,0,0,0,15.174,14.1a32.646,32.646,0,0,0-.066,3.332q-.017,1.831,0,3.662a1.007,1.007,0,0,0,.908,1.005,1.018,1.018,0,0,0,1.093-.8,2.117,2.117,0,0,0,.024-.433q0-3.3,0-6.6c0-.554.243-.87.682-.9s.724.275.765.814c.01.134.019.214.183.247a11.413,11.413,0,0,1,4.026,1.627m3.35,3.233c0,.056-.008.083,0,.1.04.074.083.146.128.218a10.577,10.577,0,0,1,1.4,3.352c.066.305.189.431.5.384.611-.091.936.207,1.181.76,1.087,2.455,2.209,4.895,3.321,7.339.07.154.1.323.359.319,1.2-.018,2.392-.014,3.588,0,.236,0,.24-.076.2-.272a2.07,2.07,0,0,0-1.871-1.737,1.035,1.035,0,0,1-1-.764c-.881-2.318-1.791-4.626-2.688-6.938a4.1,4.1,0,0,0-2.516-2.53,7.552,7.552,0,0,0-2.6-.229M22.79,4.2a2.753,2.753,0,0,0-5.506-.025A2.753,2.753,0,1,0,22.79,4.2m5.279,20.614a12.228,12.228,0,0,1-1.8,6.915h4.937l-3.14-6.915" transform="translate(-5.102 0.001)" fill="#0d8c60"/>
    <path id="Path_936" data-name="Path 936" d="M.716,345.479a.757.757,0,0,1-.716-.72.733.733,0,0,1,.744-.719.736.736,0,0,1,.7.729.756.756,0,0,1-.725.71" transform="translate(0 -319.032)" fill="#0d8c60"/>
    <path id="Path_937" data-name="Path 937" d="M188.2,344.4a4.778,4.778,0,0,1-1.645,3.164.739.739,0,0,1-1.066.021.716.716,0,0,1,.07-1.06,3.65,3.65,0,0,0,1.217-2.607.738.738,0,0,1,.77-.777c.459.034.686.366.654,1.26" transform="translate(-171.82 -318.193)" fill="#0d8c60"/>
    <path id="Path_938" data-name="Path 938" d="M148.347,401.34a.73.73,0,0,1,.739.693.715.715,0,0,1-.685.74.73.73,0,0,1-.763-.7.744.744,0,0,1,.709-.729" transform="translate(-136.906 -372.168)" fill="#0d8c60"/>
  </g>
</svg>
