<svg xmlns="http://www.w3.org/2000/svg" width="16.14" height="14.795" viewBox="0 0 16.14 14.795">
  <g id="envelope_3_" data-name="envelope (3)" transform="translate(0 -1)">
    <path id="Path_526" data-name="Path 526" d="M16.109,5.542,10.448,11.2a3.367,3.367,0,0,1-4.756,0L.031,5.542C.022,5.648,0,5.744,0,5.85v8.07a3.366,3.366,0,0,0,3.362,3.362h9.415A3.366,3.366,0,0,0,16.14,13.92V5.85C16.14,5.744,16.118,5.648,16.109,5.542Z" transform="translate(0 -1.488)" fill="#0D8C60"/>
    <path id="Path_527" data-name="Path 527" d="M9.741,8.765l6.142-6.143A3.353,3.353,0,0,0,13.021,1H3.606A3.353,3.353,0,0,0,.744,2.621L6.886,8.765a2.022,2.022,0,0,0,2.854,0Z" transform="translate(-0.244)" fill="#0D8C60"/>
  </g>
</svg>
