<svg id="Group_720" data-name="Group 720" xmlns="http://www.w3.org/2000/svg" xmlns:xlink="http://www.w3.org/1999/xlink" width="20.274" height="18.422" viewBox="0 0 20.274 18.422">
  <defs>
    <clipPath id="clip-path">
      <rect id="Rectangle_24" data-name="Rectangle 24" width="20.274" height="18.422" fill="#fff"/>
    </clipPath>
  </defs>
  <g id="Group_717" data-name="Group 717" clip-path="url(#clip-path)">
    <path id="Path_550" data-name="Path 550" d="M.074,239.226a2.96,2.96,0,0,1,5.892.511,3,3,0,0,1-2.675,2.824,2.988,2.988,0,0,1-3.206-2.43,1.353,1.353,0,0,1-.012-.138c-.053-.059-.009-.151-.073-.206v-.356c.064-.055.02-.148.074-.206" transform="translate(0 -224.151)" fill="#fff"/>
    <path id="Path_551" data-name="Path 551" d="M277.617,239.834a.682.682,0,0,0-.083.292,2.965,2.965,0,1,1,.034-1.265c.015.074-.013.159.05.222v.4a.3.3,0,0,0,0,.237Z" transform="translate(-257.343 -223.96)" fill="#fff"/>
    <path id="Path_552" data-name="Path 552" d="M.074,285.437c0,.078.057.175-.074.206v-.2l.074-.008" transform="translate(0 -270.362)" fill="#fff"/>
    <path id="Path_553" data-name="Path 553" d="M0,296.07c.128.032.075.128.073.206L0,296.268v-.2" transform="translate(0 -280.434)" fill="#fff"/>
    <path id="Path_554" data-name="Path 554" d="M383.035,294.062a.174.174,0,0,1,0-.237Z" transform="translate(-362.762 -278.307)" fill="#fff"/>
    <path id="Path_555" data-name="Path 555" d="M20.127,5.794c-.386-.484-.8-.943-1.233-1.385a18.6,18.6,0,0,0-2.4-2.076,12.662,12.662,0,0,0-4-2.009A8.512,8.512,0,0,0,8.5.163,11.373,11.373,0,0,0,4.444,1.905,18.353,18.353,0,0,0,.789,5.083,4.63,4.63,0,0,0,0,6.112v.316a1.44,1.44,0,0,0,.372.5c.38.325.745.667,1.137.978a16.432,16.432,0,0,0,5.584,3,10.814,10.814,0,0,0,4.259.38,12.141,12.141,0,0,0,3.833-1.115A18.458,18.458,0,0,0,19.974,6.9a.86.86,0,0,0,.3-.472V6.152a.952.952,0,0,0-.146-.358M10.148,8.935A2.961,2.961,0,1,1,13.12,6a2.964,2.964,0,0,1-2.972,2.934" transform="translate(0 0.001)" fill="#fff"/>
    <path id="Path_556" data-name="Path 556" d="M139.158,242.554a2.961,2.961,0,1,1,2.96-2.966,2.965,2.965,0,0,1-2.96,2.966" transform="translate(-128.997 -224.134)" fill="#fff"/>
    <path id="Path_557" data-name="Path 557" d="M160.432,83.053a1.775,1.775,0,1,1,1.772-1.786,1.778,1.778,0,0,1-1.772,1.786" transform="translate(-150.27 -75.303)" fill="#fff"/>
  </g>
</svg>
