<svg id="Group_733" data-name="Group 733" xmlns="http://www.w3.org/2000/svg" width="17.251" height="17.283" viewBox="0 0 17.251 17.283">
  <path id="Path_570" data-name="Path 570" d="M260.592,262.063a2.482,2.482,0,0,1,.19-.37.886.886,0,0,1,.77-.338q2.59,0,5.181,0h6.16a.867.867,0,0,1,.913.646,1.382,1.382,0,0,1,.032.334q0,2.582,0,5.164a.852.852,0,0,1-.016.2.279.279,0,0,1-.535.017.9.9,0,0,1-.024-.25q0-2.54,0-5.08c0-.382-.074-.457-.45-.457H261.624c-.379,0-.457.077-.457.453q0,7.62,0,15.239c0,.357.082.44.435.44h11.223c.357,0,.438-.08.438-.435q0-1.291,0-2.582a.9.9,0,0,1,.022-.234.279.279,0,0,1,.539.019,1.07,1.07,0,0,1,.015.218c0,.821-.017,1.643.007,2.464a1,1,0,0,1-.7,1.124H261.3a.983.983,0,0,1-.709-.709Z" transform="translate(-260.592 -261.355)" fill="#055b28"/>
  <path id="Path_571" data-name="Path 571" d="M462.076,361.16c-.036.06-.068.112-.1.165-.755,1.31-1.5,2.628-2.271,3.925a13.188,13.188,0,0,1-.861,1.121c-.2.268-.4.54-.583.823a.926.926,0,0,1-.929.483.224.224,0,0,0-.164.075c-.191.229-.37.467-.558.7a.58.58,0,0,1-1.051-.15c-.049-.117-.1-.235-.153-.375-.063.086-.109.154-.16.218a.539.539,0,0,1-.572.2.508.508,0,0,1-.423-.43c-.046-.322-.068-.648-.1-.972a.369.369,0,0,0-.052-.18c-.05.145-.1.29-.149.436-.169.506-.336,1.012-.505,1.518-.073.219-.2.3-.367.25-.186-.062-.25-.214-.176-.438q.331-1,.666-2a.578.578,0,0,1,1.141.123c.038.349.06.7.092,1.085.066-.091.108-.155.157-.214a.561.561,0,0,1,.936.077c.087.156.145.327.227.514.207-.253.406-.492.6-.738.022-.029.008-.1-.013-.146a.8.8,0,0,1-.01-.778,15.642,15.642,0,0,0,.857-2.049,2.5,2.5,0,0,1,.15-.319q1.131-1.965,2.266-3.928c.028-.048.054-.1.085-.153-.18-.14-.514-.22-.339-.532s.417-.076.637.022l.659-1.124c.144-.245.185-.266.472-.24a1.042,1.042,0,0,1,.7-.643.86.86,0,0,1,.619.1c.465.272.52.707.181,1.437.175.157.137.325.027.509-.22.366-.428.739-.652,1.127l.2.12a.867.867,0,0,1,.338,1.257c-.358.63-.722,1.257-1.086,1.884-.114.2-.278.258-.43.167s-.178-.254-.061-.458q.5-.87,1-1.738C462.557,361.476,462.529,361.385,462.076,361.16Zm-2.812,3.695,2.3-3.991-1-.576-2.3,3.991Zm3.167-5.486-1-.576-.576,1,1,.574Zm-4.4,5.435-.408,1.093.568.331.745-.9Zm3.943-6.365.5.285c.093-.179.259-.325.138-.522a.361.361,0,0,0-.258-.143C462.118,358.052,462.082,358.274,461.971,358.438Zm-4.089,8.281-.5-.282c-.1.175-.255.322-.137.517a.354.354,0,0,0,.256.143C457.732,367.1,457.774,366.887,457.882,366.719Z" transform="translate(-445.948 -354.009)" fill="#055b28"/>
  <path id="Path_572" data-name="Path 572" d="M333.211,309.895v.576h7.02a1.205,1.205,0,0,1,.234.018.279.279,0,0,1-.017.546,1.367,1.367,0,0,1-.2.011h-7.173c-.374,0-.447-.072-.447-.44,0-.3,0-.608,0-.911,0-.277.1-.378.376-.378.624,0,1.249,0,1.873,0q2.683,0,5.367,0a.894.894,0,0,1,.25.026.255.255,0,0,1,.188.284.259.259,0,0,1-.228.254,1.332,1.332,0,0,1-.219.01h-7.023Z" transform="translate(-330.033 -307.591)" fill="#055b28"/>
  <path id="Path_573" data-name="Path 573" d="M294.908,573.369a2.5,2.5,0,0,1,1.354.391c.254.164.322.318.214.484s-.272.163-.531,0a1.825,1.825,0,0,0-.921-.29,1.87,1.87,0,1,0,1.761,2.18c.016-.1.02-.2.031-.3a.293.293,0,0,1,.3-.295.289.289,0,0,1,.269.324,2.446,2.446,0,1,1-2.8-2.456C294.714,573.386,294.843,573.376,294.908,573.369Z" transform="translate(-291.344 -562.133)" fill="#055b28"/>
  <path id="Path_574" data-name="Path 574" d="M392.212,429.866h-3.019a.925.925,0,0,1-.2-.011.259.259,0,0,1-.215-.248.255.255,0,0,1,.167-.282.654.654,0,0,1,.231-.034q3.052,0,6.1,0a.627.627,0,0,1,.215.03.28.28,0,0,1-.045.534,1.055,1.055,0,0,1-.2.01Z" transform="translate(-384.159 -423.242)" fill="#055b28"/>
  <path id="Path_575" data-name="Path 575" d="M319.9,477.872h-2.68c-.056,0-.113,0-.168,0a.282.282,0,0,1-.292-.285.285.285,0,0,1,.292-.287,1.425,1.425,0,0,1,.152,0h5.445a.911.911,0,0,1,.234.022.279.279,0,0,1-.015.539,1.05,1.05,0,0,1-.218.016Z" transform="translate(-314.733 -469.518)" fill="#055b28"/>
  <path id="Path_576" data-name="Path 576" d="M359.917,373.412h2.748c.291,0,.428.094.426.29s-.14.287-.431.287H357.2a.913.913,0,0,1-.233-.023.279.279,0,0,1,.021-.539,1.163,1.163,0,0,1,.218-.014Z" transform="translate(-353.303 -369.376)" fill="#055b28"/>
  <path id="Path_577" data-name="Path 577" d="M318.45,517.858c-.45,0-.9,0-1.35,0-.232,0-.359-.1-.359-.286s.131-.288.36-.288q1.367,0,2.733,0c.21,0,.337.1.351.264a.288.288,0,0,1-.319.309C319.395,517.86,318.922,517.858,318.45,517.858Z" transform="translate(-314.719 -508.066)" fill="#055b28"/>
  <path id="Path_578" data-name="Path 578" d="M329.043,619.348c.336-.339.641-.653.955-.958a.406.406,0,0,1,.257-.13.384.384,0,0,1,.251.157.256.256,0,0,1-.064.335c-.328.331-.658.66-.988.99-.008.008-.017.014-.026.021a.558.558,0,0,1-.754,0c-.221-.2-.429-.412-.634-.628a.286.286,0,1,1,.412-.395C328.649,618.932,328.835,619.134,329.043,619.348Z" transform="translate(-325.523 -605.407)" fill="#055b28"/>
  <path id="Path_579" data-name="Path 579" d="M510.017,477.876c-.292,0-.584,0-.876,0a.756.756,0,0,1-.2-.019.281.281,0,0,1-.016-.532.606.606,0,0,1,.2-.025q.91,0,1.819,0a.742.742,0,0,1,.15.016.262.262,0,0,1,.225.273.259.259,0,0,1-.241.275c-.156.016-.314.012-.471.013C510.41,477.877,510.213,477.876,510.017,477.876Z" transform="translate(-499.805 -469.521)" fill="#055b28"/>
  <path id="Path_580" data-name="Path 580" d="M429.852,517.841c-.315,0-.629,0-.944,0-.21,0-.346-.12-.341-.291a.3.3,0,0,1,.336-.283q.961,0,1.922,0a.3.3,0,0,1,.333.285c0,.171-.132.286-.344.288C430.493,517.843,430.172,517.841,429.852,517.841Z" transform="translate(-422.517 -508.049)" fill="#055b28"/>
</svg>
