<svg xmlns="http://www.w3.org/2000/svg" xmlns:xlink="http://www.w3.org/1999/xlink" width="18.464" height="18.422" viewBox="0 0 18.464 18.422">
  <defs>
    <clipPath id="clip-path">
      <rect id="Rectangle_12" data-name="Rectangle 12" width="18.464" height="18.422" fill="#ffffff"/>
    </clipPath>
  </defs>
  <g id="Group_689" data-name="Group 689" transform="translate(0 0)">
    <g id="Group_688" data-name="Group 688" transform="translate(0 0)" clip-path="url(#clip-path)">
      <path id="Path_488" data-name="Path 488" d="M0,10.1a.565.565,0,0,0,.066-.32A9.168,9.168,0,0,1,1.222,6.259a.161.161,0,0,1,.116-.1,3.519,3.519,0,0,1,.491-.1l.01.01c-.16.186-.381.3-.554.474a1.365,1.365,0,0,0,.935.361,10.763,10.763,0,0,0,1.9-.252.292.292,0,0,1,.368.162c.235.417.493.821.748,1.225a.581.581,0,0,1,.093.336c-.006.384,0,.768,0,1.152a.378.378,0,0,0,.082.246c.387.518.769,1.04,1.153,1.561a.621.621,0,0,0,.066.085.213.213,0,0,0,.205.027c.076-.015.039-.089.041-.137a2.742,2.742,0,0,1,.029-.424,7.25,7.25,0,0,1,.321.675.575.575,0,0,0,.512.41c.348.052.689.146,1.035.221a.409.409,0,0,1,.244.134c.07.082.158.148.226.232a1.3,1.3,0,0,0,.836.5c.121.017.137.066.082.176-.172.342-.331.69-.5,1.033a.192.192,0,0,0,.006.23.65.65,0,0,1,.034.063,7.783,7.783,0,0,1,.973,2.454.427.427,0,0,1,0,.211c-.112.446-.211.9-.336,1.339a3.666,3.666,0,0,0,.009,1.106,1.077,1.077,0,0,0,.017.161c.015.088-.01.12-.108.131A9.2,9.2,0,0,1,.037,11.629c0-.032.012-.075-.037-.088v-.252a1.967,1.967,0,0,0,.032-.646c0-.107.04-.223-.032-.326Z" transform="translate(0 -1.606)" fill="#ffffff"/>
      <path id="Path_489" data-name="Path 489" d="M21.456,10.535c-.116.112-.084.265-.1.4a9.093,9.093,0,0,1-3.864,6.479,9.029,9.029,0,0,1-3.012,1.39.786.786,0,0,1-.1.012c.051-.187.1-.358.141-.528.018-.073.079-.1.133-.138.443-.3.885-.593,1.33-.886a.447.447,0,0,0,.193-.243c.094-.278.207-.548.3-.825a.338.338,0,0,1,.2-.226c.28-.121.553-.257.831-.382a.337.337,0,0,0,.176-.165q.453-.877.917-1.747c.05-.093.046-.137-.053-.192-.365-.206-.719-.431-1.086-.632a2.158,2.158,0,0,1-.7-.576,1.512,1.512,0,0,0-1.106-.706c-.528-.051-1.042-.256-1.578-.331a1.3,1.3,0,0,0-.625.118.342.342,0,0,1-.465-.143.819.819,0,0,0-.609-.4c-.087-.01-.112-.064-.1-.15.015-.149.018-.3.032-.448.009-.085-.015-.125-.105-.11a.237.237,0,0,1-.072,0,.548.548,0,0,0-.59.271.717.717,0,0,1-.087.1c-.056-.234-.1-.448-.158-.659-.021-.078.011-.107.073-.135.179-.083.357-.167.534-.255a.191.191,0,0,1,.184.005c.177.085.357.166.537.247a.512.512,0,0,0,.134.048c.321.048.362.027.43-.29a1.084,1.084,0,0,1,.271-.533,3.834,3.834,0,0,0,.368-.442,2.7,2.7,0,0,1,1.283-1.018,1.006,1.006,0,0,0,.24-.12,1.377,1.377,0,0,1,1.191-.191c.074.018.205.083.231-.026.035-.143.154-.3,0-.451s-.32-.343-.494-.5a3.058,3.058,0,0,1-.853-1.2.225.225,0,0,0-.271-.165,1.187,1.187,0,0,1-.747-.178,2.638,2.638,0,0,0-.806-.153c-.071-.014-.062.055-.071.1-.043.242-.092.482-.125.725-.016.115-.058.129-.162.106-.245-.055-.492-.1-.74-.143-.08-.013-.12-.043-.121-.123V5.107c0-.16-.116-.356-.018-.466s.286-.1.438-.119a.338.338,0,0,0,.343-.344,5.548,5.548,0,0,1,.147-.665c.01-.04.022-.081.037-.135.228.093.452.19.68.277.095.036.057.107.057.165,0,.325,0,.325.3.451.071.029.146.055.215.089a.689.689,0,0,0,.767-.045c.1-.071.1-.094.029-.18a9.889,9.889,0,0,0-1.054-1.081c-.158-.145-.1-.3-.1-.462,0-.077.069-.049.11-.042.236.044.47.093.7.138a.215.215,0,0,1,.108.06.913.913,0,0,0,.094.084,2.218,2.218,0,0,1,.916,1.441.658.658,0,0,0,.232.37c.3.258.59.528.883.793.032.029.061.059.095.084.2.144.352.135.445-.08a.821.821,0,0,1,.85-.523,3.5,3.5,0,0,0,1.118-.137c.068-.024.095.018.126.066A9.179,9.179,0,0,1,21.239,8.1c.066.336.108.674.143,1.014.006.057.013.106.074.127Z" transform="translate(-2.992 -0.673)" fill="#ffffff"/>
      <path id="Path_490" data-name="Path 490" d="M0,11.85c.073.1.037.218.032.326A1.967,1.967,0,0,1,0,12.822Z" transform="translate(0 -3.14)" fill="#ffffff"/>
      <path id="Path_491" data-name="Path 491" d="M2.489,6.053c.009-.029.042-.028.047-.014s-.02.023-.039.024l-.008-.01" transform="translate(-0.659 -1.598)" fill="#ffffff"/>
      <path id="Path_492" data-name="Path 492" d="M13.821.845A9.38,9.38,0,0,0,11.355.1a5,5,0,0,1-.714-.1H9.31C9.288.056,9.238.031,9.2.036c-.243.031-.489.051-.731.092A9.126,9.126,0,0,0,3.595,2.59a5.779,5.779,0,0,0-.653.712.244.244,0,0,0,.171-.016A9.025,9.025,0,0,1,5,2.86a2.892,2.892,0,0,0,1.514-.487.209.209,0,0,1,.2-.009,2.81,2.81,0,0,0,1.265.185,3.929,3.929,0,0,1,.61-.033.315.315,0,0,0,.316-.179c.084-.159.195-.3.284-.457a.16.16,0,0,1,.2-.094,2.823,2.823,0,0,0,.712.082c.459-.049.919-.094,1.378-.133a.257.257,0,0,0,.195-.1,3.521,3.521,0,0,1,.76-.678A.708.708,0,0,1,13,.842a1.683,1.683,0,0,0,.864.039.246.246,0,0,0-.044-.037m-6.171.978c-.064.018-.1-.018-.148-.043-.16-.092-.319-.186-.5-.293a4.543,4.543,0,0,0,.571-.454c.039-.044.076-.027.11,0a.715.715,0,0,0,.743,0,.13.13,0,0,1,.2.072c.068.132.146.259.226.4-.406.107-.8.211-1.2.318m2.6-.33a1.125,1.125,0,0,1-.382-.249c.44-.3.915-.54,1.377-.8a.144.144,0,0,1,.163,0c.163.1.329.193.5.293a2.076,2.076,0,0,1-1.657.757" transform="translate(-0.78 0)" fill="#ffffff"/>
    </g>
  </g>
</svg>
