<svg xmlns="http://www.w3.org/2000/svg" width="89.458" height="89.401" viewBox="0 0 89.458 89.401">
  <g id="Group_807" data-name="Group 807" transform="translate(-320.906 -320.469)">
    <path id="Path_2804" data-name="Path 2804" d="M387.158,373.713l2.811.9c-.643,1.663-1.207,3.291-1.894,4.867a53.5,53.5,0,0,1-21.868,24.913c-2.786,1.688-5.573,3.375-8.339,5.094a1.959,1.959,0,0,1-2.325-.01c-4.216-2.675-8.637-5.067-12.65-8.015A52.164,52.164,0,0,1,321.7,367.01a62.162,62.162,0,0,1-.74-9.543c-.1-7.637-.034-15.277-.033-22.915,0-1.719.429-2.187,2.134-2.144a47.253,47.253,0,0,0,20.155-3.707,49.506,49.506,0,0,0,11.312-6.931c.267-.213.539-.419.81-.627,1.181-.906,1.531-.883,2.71-.031,2.312,1.671,4.647,3.309,6.975,4.958.177.125.375.22.556.339a2.436,2.436,0,0,0,2.843.247,4.125,4.125,0,0,1,4.892.892,19.526,19.526,0,0,1,1.452,1.6l5.788-2.362c0-.552-.015-1.232,0-1.912a4.467,4.467,0,0,1,8.932-.027c.021.68,0,1.361,0,1.935l5.8,2.369c.362-.413.813-1.013,1.35-1.523a4.646,4.646,0,1,1,6.569,6.57c-.509.539-1.064,1.035-1.488,1.444l2.327,5.7c.577,0,1.258-.017,1.938,0a4.466,4.466,0,0,1,.056,8.929c-.681.027-1.363,0-2,0l-2.381,5.846a16.254,16.254,0,0,1,1.438,1.2,4.649,4.649,0,1,1-6.561,6.581c-.489-.473-.921-1.005-1.294-1.417l-5.756,2.352c0,.5.01,1.147,0,1.794a4.415,4.415,0,0,1-3.837,4.448,1.109,1.109,0,0,0-1.108.94,47.175,47.175,0,0,1-17.16,24.828c-3.142,2.373-6.468,4.5-9.709,6.743a1.477,1.477,0,0,1-1.821.078c-4.58-3.243-9.476-6.058-13.589-9.935A47.209,47.209,0,0,1,327.26,364.08a76.124,76.124,0,0,1-.353-8.085c-.052-5.185-.016-10.371-.015-15.557,0-1.607.444-2.059,2.024-2.074a40.81,40.81,0,0,0,25.7-9.2c2.085-1.661,2.1-1.64,4.137.028a39.824,39.824,0,0,0,8.141,5.174,5.335,5.335,0,0,1-1.368-4.309c.023-.145-.248-.383-.431-.507-2.616-1.774-5.257-3.512-7.85-5.319-.534-.372-.8-.187-1.19.123a50.64,50.64,0,0,1-12.257,7.33,48.606,48.606,0,0,1-18.587,3.7h-1.3v1.067c0,6.924-.047,13.849.009,20.773q.234,29.141,24.927,44.665c2.39,1.5,4.813,2.952,7.243,4.388a1.253,1.253,0,0,0,1.059.1c4.326-2.73,8.817-5.248,12.891-8.319a48.529,48.529,0,0,0,16.668-23.271c.092-.263.185-.526.281-.788A2.714,2.714,0,0,1,387.158,373.713Zm-3.618-8.6c0,.5-.018.994,0,1.49a1.487,1.487,0,1,0,2.968-.021c.026-.9,0-1.8.008-2.7.006-1.253.333-1.708,1.527-1.942a17.019,17.019,0,0,0,6.154-2.522,1.546,1.546,0,0,1,2.315.252c.711.694,1.4,1.414,2.112,2.1a1.673,1.673,0,1,0,2.354-2.353c-.732-.76-1.495-1.491-2.234-2.244a1.479,1.479,0,0,1-.224-2.028,17.053,17.053,0,0,0,2.667-6.49,1.525,1.525,0,0,1,1.713-1.349c.931.009,1.863.015,2.794,0a1.5,1.5,0,1,0,.027-2.973c-.9-.019-1.8,0-2.7-.006-1.177-.009-1.642-.35-1.868-1.5a16.8,16.8,0,0,0-2.569-6.233,1.548,1.548,0,0,1,.207-2.177c.724-.725,1.458-1.44,2.169-2.177a1.678,1.678,0,1,0-2.381-2.327c-.735.714-1.447,1.45-2.177,2.169a1.516,1.516,0,0,1-2.1.209,16.75,16.75,0,0,0-6.408-2.625,1.529,1.529,0,0,1-1.376-1.693c.005-.962.017-1.925-.005-2.887a1.491,1.491,0,1,0-2.97.012c-.021.931,0,1.863-.008,2.794-.012,1.079-.356,1.56-1.388,1.768a17.773,17.773,0,0,0-6.175,2.478,1.859,1.859,0,0,1-2.538-.279c-.675-.641-1.313-1.322-1.983-1.969a1.678,1.678,0,1,0-2.343,2.366c.713.735,1.448,1.449,2.17,2.177a1.513,1.513,0,0,1,.226,2.1,17.256,17.256,0,0,0-2.638,6.4c-.206,1.032-.689,1.377-1.768,1.389-.931.01-1.863-.014-2.794.008a1.491,1.491,0,1,0-.013,2.97c.931.023,1.863,0,2.794.008,1.118.011,1.584.356,1.8,1.463a17.257,17.257,0,0,0,2.555,6.24,1.514,1.514,0,0,1-.222,2.244c-.668.693-1.362,1.36-2.036,2.047-.894.911-.971,1.88-.22,2.609a1.693,1.693,0,0,0,2.544-.223c.667-.65,1.315-1.32,1.979-1.973.879-.865,1.372-.831,2.478-.268a27.673,27.673,0,0,0,4.9,2.171C383.508,362.367,383.585,362.233,383.54,365.113Zm-29.815,14.945v-1.075c0-2.98,0-5.961,0-8.942,0-1.337-.525-1.858-1.862-1.861-3.011-.007-6.023,0-9.034,0h-.981v-5.963h.951q4.47,0,8.941,0c1.508,0,1.985-.488,1.987-2.02q0-4.424,0-8.849v-.987h5.963v.9c0,3.074-.006,6.147,0,9.221,0,1.011.472,1.672,1.335,1.707,1.51.061,3.024.017,4.565.017V359.2h-2.923c0-3.422.005-6.742,0-10.062,0-1.284-.533-1.819-1.8-1.823q-4.191-.014-8.383,0a1.514,1.514,0,0,0-1.73,1.707c-.017,1.552,0,3.1,0,4.657v5.556h-1.091q-4.471,0-8.942,0c-1.358,0-1.886.511-1.89,1.831q-.013,4.145,0,8.29c0,1.269.542,1.8,1.828,1.8,3.012.008,6.023,0,9.035,0h1.059v1.117c0,2.981,0,5.961,0,8.942,0,1.338.524,1.86,1.859,1.864q4.052.011,8.1,0c1.461,0,1.957-.5,1.959-1.953q.006-4.471,0-8.942v-1.029h.961c3.074,0,6.147.006,9.221,0,1.011,0,1.677-.472,1.712-1.331.062-1.51.017-3.025.017-4.571h-3v2.925c-3.422,0-6.741,0-10.061,0-1.287,0-1.817.528-1.828,1.8-.011,1.366,0,2.732,0,4.1v5.979Z" fill="#055b28"/>
    <path id="Path_2805" data-name="Path 2805" d="M595.172,588.855l-2.639,2.433,1.589,3.833h2.887v2.942h-2.871l-1.59,3.84,2.622,2.469-2.336,2.095-2.24-2.524-3.95,1.653v2.9h-2.968v-2.882l-3.92-1.632-2.379,2.689-2.216-2.324,2.632-2.3-1.625-3.912h-2.883v-2.975h2.863l1.637-3.964-2.7-2.372,2.287-2.052,2.242,2.54,4.019-1.677v-2.882h2.975v2.875l3.947,1.628,2.305-2.783Zm-9.989,4.814v2.893h2.876v-2.893Z" transform="translate(-189.675 -198.623)" fill="#055b28"/>
    <path id="Path_2806" data-name="Path 2806" d="M609.154,523.107v-2.949h2.914c1.654-1.787-.262-2.425-.971-3.468l2.306-2.17c.319.415.687.9,1.064,1.382a.809.809,0,0,0,1.175.294c.531-.28,1.054-.4.947-1.208a17.786,17.786,0,0,1-.02-2.267h2.92v2.893c1.747,1.588,2.437-.172,3.462-.962l1.959,2.2c-.118.124-.346.37-.582.607-1.134,1.139-1.135,1.138-.411,2.657h3.016v2.95h-2.88c-1.651,1.786.266,2.423.973,3.467l-2.124,1.995a17.709,17.709,0,0,1-1.365-1.346c-.386-.462-.724-.3-1.132-.1s-.953.229-.872.966a23.058,23.058,0,0,1,.019,2.455H616.6v-2.919c-1.717-1.576-2.4.21-3.424.984l-2.112-2.361a3.158,3.158,0,0,0,.727-.446c1.153-1.117,1.143-1.128.413-2.649Z" transform="translate(-216.634 -144.489)" fill="#055b28"/>
    <path id="Path_2807" data-name="Path 2807" d="M549.231,650.568h2.85v2.9h-2.85Z" transform="translate(-171.599 -248.089)" fill="#055b28"/>
    <path id="Path_2808" data-name="Path 2808" d="M519.168,671.632v-2.865h2.881v2.865Z" transform="translate(-149.005 -261.766)" fill="#055b28"/>
    <path id="Path_2809" data-name="Path 2809" d="M569.956,444.927a4.467,4.467,0,1,1-4.473-4.412A4.486,4.486,0,0,1,569.956,444.927Zm-2.985.128a1.486,1.486,0,1,0-1.536,1.412A1.5,1.5,0,0,0,566.971,445.055Z" transform="translate(-180.461 -90.222)" fill="#055b28"/>
    <path id="Path_2810" data-name="Path 2810" d="M565.508,377.459a4.467,4.467,0,1,1,4.439-4.542A4.486,4.486,0,0,1,565.508,377.459Zm.012-2.984A1.484,1.484,0,1,0,564,373.052,1.5,1.5,0,0,0,565.52,374.475Z" transform="translate(-180.455 -36.118)" fill="#055b28"/>
    <path id="Path_2811" data-name="Path 2811" d="M533.948,408.98a4.466,4.466,0,1,1-4.43-4.454A4.487,4.487,0,0,1,533.948,408.98Zm-4.467-1.473a1.484,1.484,0,1,0,1.486,1.458A1.495,1.495,0,0,0,529.481,407.507Z" transform="translate(-153.399 -63.174)" fill="#055b28"/>
    <path id="Path_2812" data-name="Path 2812" d="M601.493,404.526a4.467,4.467,0,1,1-4.478,4.5A4.48,4.48,0,0,1,601.493,404.526ZM602.967,409a1.484,1.484,0,1,0-1.468,1.477A1.494,1.494,0,0,0,602.967,409Z" transform="translate(-207.511 -63.174)" fill="#055b28"/>
  </g>
</svg>
