<svg xmlns="http://www.w3.org/2000/svg" width="89.374" height="89.401" viewBox="0 0 89.374 89.401">
  <g id="Group_808" data-name="Group 808" transform="translate(-309.01 -308.5)">
    <path id="Path_2813" data-name="Path 2813" d="M606.58,538.677h-26.1c-.421-4.085.168-7.794,3.353-10.7,2.3-2.1,2.284-2.743-.027-4.81a9.911,9.911,0,0,1-3.41-8.062,2.588,2.588,0,0,1,2.614-2.6q10.463-.027,20.927-.007a2.915,2.915,0,0,1,2.64,1.918v2.095a5.053,5.053,0,0,0-.16.576,10.555,10.555,0,0,1-3.519,6.34c-2.035,1.839-1.981,2.5,0,4.329a10.552,10.552,0,0,1,2.872,4c.334.888.541,1.824.805,2.738Z" transform="translate(-208.197 -156.512)" fill="#055b28"/>
    <path id="Path_2814" data-name="Path 2814" d="M606.683,656.054c-.694,1.512-1.892,1.96-3.513,1.945-6.511-.06-13.022-.024-19.534-.025-2.155,0-3.136-.983-3.138-3.139,0-2.408,0-4.816,0-7.334h26.184Z" transform="translate(-208.299 -260.098)" fill="#055b28"/>
    <path id="Path_2815" data-name="Path 2815" d="M602.9,311.817c-.579.71-1.1,1.475-1.745,2.122q-6.947,7-13.941,13.946a6.036,6.036,0,0,1-.946.611c.825.775,1.438,1.3,2,1.886a2.6,2.6,0,0,1-.022,3.876c-.543.566-1.1,1.115-1.57,1.588l-11.106-11.1c.572-.563,1.223-1.305,1.976-1.924a2.491,2.491,0,0,1,3.344.2c.63.592,1.183,1.266,2,2.155a6.2,6.2,0,0,1,.625-.983q6.99-7.016,14.007-14c.627-.622,1.37-1.127,2.059-1.687h1.4a3.954,3.954,0,0,1,1.92,1.92Z" transform="translate(-204.517)" fill="#055b28"/>
    <path id="Path_2816" data-name="Path 2816" d="M438.66,390.092c2.015-2.034,3.858-3.97,5.791-5.813a2.567,2.567,0,0,1,3.564.171c.867.818,1.694,1.679,2.537,2.522q5.923,5.923,11.843,11.849c1.568,1.572,1.566,2.928-.01,4.5Q449,416.717,435.605,430.1c-.18.18-.376.344-.513.468L416.74,412.212l3.638-3.611c.655.666,1.419,1.451,2.191,2.23q1.352,1.363,2.714,2.715c1.486,1.484,3.017,1.649,4.19.454,1.151-1.172.984-2.684-.457-4.127q-2.22-2.222-4.445-4.439a8.078,8.078,0,0,0-.657-.534l3.785-3.7c.108.1.318.278.514.473,1.565,1.561,3.123,3.129,4.691,4.687a2.638,2.638,0,1,0,3.726-3.68c-1.741-1.751-3.492-3.491-5.191-5.187l3.712-3.678c1.661,1.656,3.431,3.411,5.187,5.179a2.742,2.742,0,0,0,2.412.957,2.614,2.614,0,0,0,1.5-4.449c-1.586-1.622-3.2-3.219-4.809-4.816A7.2,7.2,0,0,0,438.66,390.092Z" transform="translate(-82.656 -57.65)" fill="#055b28"/>
    <path id="Path_2817" data-name="Path 2817" d="M363.113,525.941l3.527-3.748,18.641,18.67-3.772,3.513c.709.678,1.312,1.218,1.873,1.8a2.6,2.6,0,0,1,.052,3.812,2.64,2.64,0,0,1-3.757-.137q-11.018-11-22.016-22.017a2.634,2.634,0,0,1-.083-3.817,2.6,2.6,0,0,1,3.75.1C361.91,524.679,362.461,525.273,363.113,525.941Z" transform="translate(-36.666 -163.956)" fill="#055b28"/>
    <path id="Path_2818" data-name="Path 2818" d="M315.216,593.694l7.316-7.336,11.145,11.116-7.4,7.383c.636.537,1.268,1,1.815,1.549a2.613,2.613,0,0,1,.2,3.877,2.651,2.651,0,0,1-3.942-.222q-7.193-7.183-14.375-14.376a2.642,2.642,0,0,1-.219-3.88,2.607,2.607,0,0,1,3.875.142C314.189,592.494,314.685,593.1,315.216,593.694Z" transform="translate(0 -213.187)" fill="#055b28"/>
  </g>
</svg>
