<svg xmlns="http://www.w3.org/2000/svg" xmlns:xlink="http://www.w3.org/1999/xlink" width="30.166" height="33.063" viewBox="0 0 30.166 33.063">
  <defs>
    <clipPath id="clip-path">
      <rect id="Rectangle_241" data-name="Rectangle 241" width="30.166" height="33.062" fill="#0d8c60"/>
    </clipPath>
  </defs>
  <g id="Group_1393" data-name="Group 1393" transform="translate(0 0)">
    <g id="Group_1392" data-name="Group 1392" transform="translate(0 0)" clip-path="url(#clip-path)">
      <path id="Path_925" data-name="Path 925" d="M21.885,23.24c1.505-.869,3-1.733,4.492-2.59.148-.085.138-.152.065-.287-.405-.762-.4-.764-1.143-.337-.465.268-.935.529-1.392.81-.165.1-.262.124-.355-.077-.116-.249-.386-.513-.344-.723.035-.178.415-.291.647-.426a11.815,11.815,0,0,0,1.415-.835c.379-.3-.15-.512-.206-.784-.031-.153-.124-.274-.333-.134-.316.211-.658.382-.982.581-.149.092-.246.117-.336-.074-.118-.252-.387-.51-.353-.73.026-.169.417-.282.645-.421s.567-.233.617-.415-.215-.435-.321-.666c-.095-.207-.184-.238-.392-.11-.609.376-1.239.717-1.855,1.084-.165.1-.25.108-.361-.08-.421-.714-.429-.711.294-1.131.474-.275.946-.555,1.427-.817.173-.094.188-.179.085-.335-.148-.223-.232-.576-.43-.656s-.45.215-.685.332-.487.414-.689.34-.277-.431-.433-.647c-.125-.173-.093-.254.09-.348.337-.175.658-.382.993-.562.15-.081.177-.146.09-.307-.409-.759-.4-.762-1.148-.329-.474.275-.952.544-1.421.828-.148.089-.227.086-.307-.079-.123-.25-.389-.5-.362-.73.02-.165.41-.289.639-.424.464-.271.929-.541,1.4-.8.158-.088.248-.161.114-.35-.155-.218-.236-.577-.433-.652s-.457.209-.686.341c-1.242.713-2.479,1.436-3.727,2.138-.222.125-.2.215-.093.4,1.024,1.76,2.036,3.528,3.063,5.287.123.21.136.318-.11.419s-.459.383-.663.322c-.175-.053-.27-.385-.392-.6q-1.454-2.514-2.9-5.029a1.067,1.067,0,0,1,.2-1.505c.092-.092.1-.145.035-.248q-.229-.371-.437-.755a1.026,1.026,0,0,1,.222-1.365c.133-.12.122-.2.044-.327q-.47-.8-.925-1.6a1.026,1.026,0,0,1,.211-1.419c.182-.161.056-.249-.007-.356q-1.584-2.651-3.179-5.3c-.126-.208-.17-.336.1-.444.232-.092.447-.389.655-.317.182.063.278.382.4.592q1.46,2.433,2.912,4.871c.114.191.193.291.458.2a1,1,0,0,1,1.222.52c.315.529.625,1.061.923,1.6.089.161.16.216.355.15a1.015,1.015,0,0,1,1.225.442c.158.244.3.5.442.753.072.133.129.195.307.142a1.053,1.053,0,0,1,1.347.576q2.848,4.926,5.688,9.858c.147.257.25.288.486.123a1.635,1.635,0,0,1,1.5-.277A1.534,1.534,0,0,1,30.4,20.828a1.552,1.552,0,0,1-.707,1.628c-.184.125-.526.231-.531.356-.008.212.188.435.31.647a1.486,1.486,0,0,1,.3.907,1.141,1.141,0,0,1-.739.962c-.23.1-.248.207-.113.419.288.453.551.923.81,1.393.088.159.152.207.323.093a8.286,8.286,0,0,1,.787-.449,1.6,1.6,0,0,1,2.136.595,1.574,1.574,0,0,1-.515,2.181q-2.846,1.681-5.729,3.3a1.572,1.572,0,0,1-2.147-.639,1.606,1.606,0,0,1,.578-2.171c.266-.165.539-.32.814-.469.115-.062.134-.115.065-.232-.308-.52-.608-1.044-.907-1.57-.063-.111-.118-.12-.238-.065-1.16.532-1.413.447-2.052-.666-.268-.466-.268-.466-.73-.216a1.613,1.613,0,1,1-1.588-2.807.755.755,0,0,1,.115-.068c.268-.1.3-.227.145-.49-.563-.928-1.089-1.878-1.641-2.812-.11-.186-.151-.3.092-.4s.476-.375.666-.335c.224.047.3.411.429.639.521.887,1.034,1.779,1.556,2.679m-.554,2.735a1.1,1.1,0,0,0,.416-.171q1.889-1.092,3.779-2.18,1.7-.98,3.4-1.963a.548.548,0,0,0,.131-.937.574.574,0,0,0-.688.014q-3.616,2.092-7.235,4.18a.989.989,0,0,0-.215.157.491.491,0,0,0-.1.56.543.543,0,0,0,.515.339m10.793,2.19a.54.54,0,0,0-.86-.39c-.887.5-1.765,1.015-2.647,1.524-.94.542-1.882,1.082-2.819,1.627a.543.543,0,1,0,.535.935c.157-.085.311-.177.466-.267q2.457-1.416,4.915-2.832a.659.659,0,0,0,.412-.6m-8.042-1.22.213-.122q1.845-1.064,3.689-2.129c.231-.134.617-.254.643-.426.034-.219-.23-.481-.353-.73-.074-.15-.137-.186-.3-.092-1.429.835-2.864,1.659-4.3,2.488-.061.035-.185.063-.138.156.141.278.305.545.464.815.013.022.052.028.076.041m4.8.885-.065-.112c-.3-.512-.594-1.022-.884-1.538-.072-.127-.129-.143-.258-.065-.507.3-1.021.6-1.536.886-.12.067-.154.123-.076.254q.464.776.906,1.564c.064.113.117.13.229.064.519-.307,1.041-.607,1.561-.91.056-.032.127-.052.123-.143M19.122,9.84c-.137-.236-.286-.462-.4-.7-.084-.173-.162-.147-.3-.066-.625.369-1.257.727-1.886,1.089-.771.444-.765.44-.282,1.182.095.146.158.134.285.06.81-.474,1.624-.94,2.435-1.41.063-.036.143-.058.149-.152m-3.111-3.1c-.214.124-.431.262-.661.376-.173.086-.219.161-.1.343.2.307.372.635.556.954.442.766.44.763,1.187.251.123-.084.128-.141.056-.262-.3-.5-.581-1-.873-1.505-.036-.063-.053-.153-.165-.156" transform="translate(-4.016 0)" fill="#0d8c60"/>
      <path id="Path_926" data-name="Path 926" d="M37.55,10.06a.143.143,0,0,0-.019-.028c-.229-.231-.421-.551-.7-.668s-.51.266-.8.344a7.113,7.113,0,0,1-.734.227c-.218.032-.246.129-.233.307a2.549,2.549,0,0,1,0,.437c-.029.293,0,.512.388.425.112-.026.168.029.153.148a.481.481,0,0,0,0,.068c.03.86.03.86-.823.86-.382,0-.763-.006-1.144,0-.143,0-.2-.033-.191-.186a2.818,2.818,0,0,0,0-.471c-.027-.291,0-.513.387-.426.111.026.17-.027.155-.147a.752.752,0,0,1,0-.1,2.067,2.067,0,0,0-.028-.8c-.1-.218-.455-.142-.685-.243A3.7,3.7,0,0,1,32.5,9.42c-.179-.135-.3-.128-.433.056a1.689,1.689,0,0,1-.284.286c-.21.18-.385.351-.036.568.117.073.1.16-.006.237a.42.42,0,0,0-.048.047c-.58.6-.58.6-1.168.017-.246-.246-.478-.508-.743-.731-.21-.177-.176-.293.013-.438a1.251,1.251,0,0,0,.214-.213c.195-.241.388-.405.621-.039.057.089.124.073.184,0a.551.551,0,0,1,.047-.047c.2-.2.475-.366.57-.606s-.221-.441-.314-.683a3.406,3.406,0,0,1-.268-.826c-.026-.236-.136-.266-.327-.25a2.38,2.38,0,0,1-.37,0c-.3-.023-.568-.03-.475.4.021.1-.03.146-.131.136a.588.588,0,0,0-.067,0c-.878.044-.878.044-.878-.839,0-.37.008-.741,0-1.11,0-.158.036-.225.2-.208a2.424,2.424,0,0,0,.4,0c.293-.02.569-.033.476.4-.02.1.028.147.131.138a.589.589,0,0,1,.067,0,2.237,2.237,0,0,0,.831-.026c.234-.1.16-.467.264-.7a3.384,3.384,0,0,1,.4-.774c.142-.178.1-.282-.053-.405a1.848,1.848,0,0,1-.284-.286c-.189-.246-.372-.373-.593-.035-.067.1-.145.08-.213-.008a.285.285,0,0,0-.024-.024c-.662-.593-.662-.593-.04-1.214.246-.246.5-.48.733-.741.164-.188.278-.17.412.013a1.423,1.423,0,0,0,.141.143c.394.394.394.394.052.8a3.279,3.279,0,0,0,.691.678c.322.168.524-.265.828-.33.25-.053.484-.189.734-.225.219-.032.246-.129.233-.307a2.55,2.55,0,0,1,0-.437c.029-.294-.006-.511-.389-.424-.113.025-.143-.033-.156-.149-.1-.928-.108-.928.826-.928.382,0,.763.006,1.144,0,.144,0,.2.035.191.186a2.749,2.749,0,0,0,0,.471c.027.291,0,.513-.387.426-.111-.025-.169.028-.154.147,0,.033,0,.067,0,.1a2.051,2.051,0,0,0,.028.8c.1.218.456.142.686.243a3.4,3.4,0,0,1,.8.411c.17.136.264.088.38-.051a2.814,2.814,0,0,1,.309-.309c.207-.181.386-.351.037-.568-.118-.073-.1-.16.006-.236a.17.17,0,0,0,.024-.024c.592-.64.592-.64,1.215-.017.238.238.462.493.718.708.211.176.177.294-.013.438a1.481,1.481,0,0,0-.191.189c-.2.214-.384.485-.644.063-.055-.09-.124-.073-.183.005-.007.009-.016.016-.024.024a2.789,2.789,0,0,0-.579.6c-.143.282.216.457.3.708a4.132,4.132,0,0,1,.265.827c.027.236.136.267.327.25a2.232,2.232,0,0,1,.37,0c.294.022.568.031.475-.4-.02-.1.029-.147.131-.137a.471.471,0,0,0,.067,0c.878-.044.878-.044.878.839,0,.37-.007.741,0,1.11,0,.157-.036.225-.2.208a2.365,2.365,0,0,0-.4,0c-.292.02-.57.034-.476-.4.02-.1-.027-.147-.13-.138-.022,0-.045,0-.067,0a2.264,2.264,0,0,0-.831.026c-.234.1-.162.467-.265.7a3.408,3.408,0,0,1-.4.774c-.141.177-.095.28.052.406a3.767,3.767,0,0,1,.4.4c.13.152.243.212.378.012s.248-.163.408,0c.548.567.555.56-.01,1.125-.254.254-.52.5-.757.765-.165.188-.278.17-.413-.013a1.352,1.352,0,0,0-.141-.143c-.392-.392-.392-.392-.054-.8M31.835,6.254a2.692,2.692,0,1,0,2.693-2.69,2.7,2.7,0,0,0-2.693,2.69" transform="translate(-10.29 -0.118)" fill="#0d8c60"/>
      <path id="Path_927" data-name="Path 927" d="M7.517,26.982c-1.66,0-3.32.007-4.98-.006-.289,0-.39.049-.387.369.018,1.907,0,3.814.015,5.721,0,.275-.035.388-.354.376-.729-.029-.729-.008-.729-.734q0-3.785,0-7.571c0-.2-.025-.3-.259-.351a1.039,1.039,0,0,1-.821-1.051C0,23.2,0,22.657.006,22.119a1.6,1.6,0,0,1,1.614-1.6c2.613-.008,5.227,0,7.841-.008.189,0,.239.049.242.239.01.842.017.842-.813.842H1.823c-.576,0-.741.165-.742.736,0,.37.016.741-.006,1.11-.014.245.045.317.305.315,1.917-.013,3.836-.007,5.754-.007,1.3,0,2.6,0,3.9,0,.209,0,.283.038.282.269-.006.812,0,.812-.81.812-2.681,0-5.362,0-8.043-.005-.239,0-.323.038-.317.3.018.779,0,.78.777.78q4.828,0,9.657-.006c.268,0,.361.044.352.337-.024.746-.007.746-.743.746Z" transform="translate(0 -7.381)" fill="#0d8c60"/>
      <path id="Path_928" data-name="Path 928" d="M8.917,45.05q-2.2,0-4.406,0a2.693,2.693,0,0,1-2.824-2.834c0-.762.005-1.526,0-2.288,0-.188.018-.291.246-.268.265.027.614-.082.778.051s.06.5.048.768c-.01.235.079.268.284.267q5.651-.009,11.3,0c.223,0,.273-.062.272-.277-.008-1.783,0-3.566-.012-5.349,0-.252.059-.315.31-.31.773.015.773,0,.773.782q0,3.566,0,7.132a2.163,2.163,0,0,1-2.33,2.325H8.917M8.7,41.818c-1.884,0-3.768,0-5.652.005-.095,0-.246-.1-.288.113a1.7,1.7,0,0,0,1.655,2.034c.729.008,1.458,0,2.187,0q3.431,0,6.862,0a1.08,1.08,0,0,0,1.146-1.133c0-.246-.018-.495.006-.739s-.073-.287-.3-.286c-1.873.009-3.745.005-5.618.005" transform="translate(-0.605 -12.525)" fill="#0d8c60"/>
      <path id="Path_929" data-name="Path 929" d="M7.577,35.516v-.269c0-.95.373-1.34,1.312-1.327.25,0,.314-.056.31-.309-.013-.94.376-1.313,1.325-1.313.258,0,.516,0,.773,0a1.081,1.081,0,0,1,1.126,1.117,1.01,1.01,0,0,1,0,.2c-.051.265.073.305.311.3.914-.01,1.305.39,1.306,1.3,0,.269,0,.538,0,.807a1.08,1.08,0,0,1-1.126,1.118c-.481.008-.481.008-.488.487a1.08,1.08,0,0,1-1.116,1.128q-.5.008-1.008,0a1.079,1.079,0,0,1-1.108-1.1c0-.022,0-.045,0-.067,0-.443,0-.443-.429-.446a1.092,1.092,0,0,1-1.186-1.193c0-.145,0-.291,0-.437m1.7-.525c-.62,0-.62,0-.62.627a1.514,1.514,0,0,1,0,.235c-.028.187.06.225.227.218.269-.012.538-.009.807,0a.54.54,0,0,1,.583.59c.006.269.013.539,0,.807-.011.184.058.217.227.22.853.018.853.023.853-.834,0-.64.148-.785.793-.786.854,0,.854,0,.823-.862a.145.145,0,0,1,0-.033c.025-.154-.049-.189-.19-.184-.28.009-.561.008-.841,0a.54.54,0,0,1-.583-.59c-.006-.28,0-.561,0-.841,0-.115-.01-.173-.156-.188-.922-.093-.922-.1-.922.8v.1c0,.547-.174.717-.727.719h-.27" transform="translate(-2.726 -11.62)" fill="#0d8c60"/>
      <path id="Path_930" data-name="Path 930" d="M36.413,8.445c0,.537,0,.537-.54.537s-.537,0-.537-.539,0-.538.54-.538.537,0,.537.54" transform="translate(-12.714 -2.844)" fill="#0d8c60"/>
      <path id="Path_931" data-name="Path 931" d="M39.225,10.664c-.525,0-.525,0-.525-.519,0-.558,0-.558.552-.558.525,0,.525,0,.525.519,0,.558,0,.558-.552.558" transform="translate(-13.924 -3.449)" fill="#0d8c60"/>
    </g>
  </g>
</svg>
