<svg id="Group_724" data-name="Group 724" xmlns="http://www.w3.org/2000/svg" xmlns:xlink="http://www.w3.org/1999/xlink" width="29.949" height="36.771" viewBox="0 0 29.949 36.771">
  <defs>
    <clipPath id="clip-path">
      <rect id="Rectangle_27" data-name="Rectangle 27" width="29.949" height="36.771" fill="#333"/>
    </clipPath>
  </defs>
  <g id="Group_723" data-name="Group 723" clip-path="url(#clip-path)">
    <path id="Path_564" data-name="Path 564" d="M14.775,0a8.229,8.229,0,0,1-3.936,7.663,5.193,5.193,0,0,1-3.244.819c-.222-.01-.208-.121-.21-.271a7.772,7.772,0,0,1,3.768-6.933,7.909,7.909,0,0,1,3.1-1.226c.032,0,.059-.034.089-.053Z" transform="translate(7.55)" fill="#333"/>
    <path id="Path_565" data-name="Path 565" d="M0,15.574A12.076,12.076,0,0,1,2.024,8.382,8.721,8.721,0,0,1,8.29,4.511a7.444,7.444,0,0,1,3.216.38c.912.285,1.784.676,2.682,1a3,3,0,0,0,2.166-.077,23.811,23.811,0,0,1,3.873-1.264,9.043,9.043,0,0,1,4.963.489A7.548,7.548,0,0,1,28.846,7.8c.144.2.144.285-.071.427a8.3,8.3,0,0,0-2.789,2.886,8.111,8.111,0,0,0-.756,5.534,7.717,7.717,0,0,0,4.336,5.633c.447.235.451.237.279.7A22.852,22.852,0,0,1,25.1,30.721a4.549,4.549,0,0,1-5.052,1.236c-.738-.235-1.464-.514-2.192-.777a6.623,6.623,0,0,0-4.561.051c-.924.32-1.82.71-2.777.942a3.825,3.825,0,0,1-3.1-.6,9.1,9.1,0,0,1-2.1-1.988A23.221,23.221,0,0,1,.388,19.134,18.378,18.378,0,0,1,0,15.574" transform="translate(0 4.489)" fill="#333"/>
  </g>
</svg>
