<svg xmlns="http://www.w3.org/2000/svg" width="51" height="40" viewBox="0 0 51 40">
  <g id="Group_1380" data-name="Group 1380" transform="translate(4878 270) rotate(180)">
    <path id="Rectangle_220" data-name="Rectangle 220" d="M5,0H51a0,0,0,0,1,0,0V40a0,0,0,0,1,0,0H5a5,5,0,0,1-5-5V5A5,5,0,0,1,5,0Z" transform="translate(4827 230)" fill="#f3f3f3"/>
    <g id="chevron-left" transform="translate(4848.332 242.325)">
      <path id="Path_38" data-name="Path 38" d="M18.374,3.55a.6.6,0,0,1,0,.852l-6.8,6.8,6.8,6.8a.6.6,0,0,1-.852.852L10.3,11.624a.6.6,0,0,1,0-.852L17.522,3.55a.6.6,0,0,1,.852,0Z" transform="translate(-10.123 -3.373)" fill="#696b7e" fill-rule="evenodd"/>
    </g>
  </g>
</svg>
