<svg xmlns="http://www.w3.org/2000/svg" xmlns:xlink="http://www.w3.org/1999/xlink" width="10.708" height="18.901" viewBox="0 0 10.708 18.901">
  <defs>
    <clipPath id="clip-path">
      <rect id="Rectangle_20" data-name="Rectangle 20" width="10.708" height="18.901" fill="#ffffff"/>
    </clipPath>
  </defs>
  <g id="Group_701" data-name="Group 701" transform="translate(0 0)">
    <g id="Group_701-2" data-name="Group 701" transform="translate(0 0)" clip-path="url(#clip-path)">
      <path id="Path_493" data-name="Path 493" d="M10.7,1.468A1.383,1.383,0,0,0,9.236,0Q5.352,0,1.468,0a1.593,1.593,0,0,0-.456.055A1.379,1.379,0,0,0,0,1.469Q0,4.892,0,8.315q0,4.549,0,9.1a1.483,1.483,0,0,0,.373,1.048,1.632,1.632,0,0,0,.808.439H9.524c.009-.008.016-.02.027-.022a1.407,1.407,0,0,0,1.156-1.449q-.008-7.981,0-15.962M3.512.839H5.354c.613,0,1.228.009,1.842,0,.237-.006.292.139.3.324.006.24-.084.343-.3.343H3.511c-.214,0-.3-.1-.3-.344S3.3.84,3.512.839m1.841,16.7a.873.873,0,1,1,.878-.879.884.884,0,0,1-.878.879m4.133-3q-4.134-.008-8.268,0c-.156,0-.189-.041-.189-.192q.009-2.962,0-5.925t0-5.924c0-.148.04-.179.181-.178q4.143.006,8.286,0c.143,0,.179.035.179.179q-.006,5.923,0,11.848c0,.152-.035.192-.19.192" transform="translate(0 0)" fill="#ffffff"/>
    </g>
  </g>
</svg>
