<svg xmlns="http://www.w3.org/2000/svg" width="16" height="16.028" viewBox="0 0 16 16.028">
  <path id="phone-call_1_" data-name="phone-call (1)" d="M14.823,14.8l.608-.7a2.07,2.07,0,0,0,0-2.923C15.41,11.155,13.8,9.919,13.8,9.919a2.07,2.07,0,0,0-2.858,0L9.673,11A8.536,8.536,0,0,1,5.044,6.359L6.112,5.09a2.07,2.07,0,0,0,0-2.859S4.88.626,4.859.606A2.058,2.058,0,0,0,1.971.575L1.2,1.243C-3.334,6.506,6.435,16.2,11.871,16.024A4.11,4.11,0,0,0,14.823,14.8Z" transform="translate(-0.035 0.002)" fill="#0D8C60"/>
</svg>
