<svg xmlns="http://www.w3.org/2000/svg" width="70.864" height="71" viewBox="0 0 70.864 71">
  <g id="Group_741" data-name="Group 741" transform="translate(-295.945 -295.951)">
    <path id="Path_597" data-name="Path 597" d="M333.457,366.95h-4.152a3.768,3.768,0,0,0-.535-.114,32.754,32.754,0,0,1-13.962-4.036c-11.643-6.533-17.977-16.515-18.8-29.867a32.56,32.56,0,0,1,4.114-18.134c6.5-11.64,16.471-17.962,29.769-18.785a32.8,32.8,0,0,1,18.1,4.111,34.964,34.964,0,0,1,18.253,25.149c.259,1.352.376,2.732.558,4.1v4.16a4.718,4.718,0,0,0-.117.6,33.44,33.44,0,0,1-4.044,13.98,34.961,34.961,0,0,1-25.094,18.278C336.2,366.651,334.823,366.767,333.457,366.95Zm14.931-35.5-26.65-15.417v30.835Z" transform="translate(0 0)" fill="#fff"/>
  </g>
</svg>
