<svg id="Group_1400" data-name="Group 1400" xmlns="http://www.w3.org/2000/svg" xmlns:xlink="http://www.w3.org/1999/xlink" width="33.064" height="34.067" viewBox="0 0 33.064 34.067">
  <defs>
    <clipPath id="clip-path">
      <rect id="Rectangle_242" data-name="Rectangle 242" width="33.064" height="34.067" fill="#696b7e"/>
    </clipPath>
  </defs>
  <g id="Group_1400-2" data-name="Group 1400" clip-path="url(#clip-path)">
    <path id="Path_932" data-name="Path 932" d="M0,180.334c.11-.081.093-.215.129-.325a1.643,1.643,0,0,1,1.485-1.274A1.648,1.648,0,0,1,3.068,180c.049.148.017.34.3.341.3,0,.425-.062.475-.38a3.59,3.59,0,0,1,.668-1.542c.079-.109.151-.209-.007-.293s-.18-.4-.466-.22a2.079,2.079,0,0,1-.938.31,1.317,1.317,0,0,1-1.508-1.407,2.649,2.649,0,0,1,2.185-2.349,1.362,1.362,0,0,1,1.535,1.786,1.532,1.532,0,0,1-.222.55c-.2.265,0,.371.134.538.165.206.278.071.414-.02a4.2,4.2,0,0,1,1.621-.653c.1-.017.259.028.2-.155s.172-.433-.154-.525a2.329,2.329,0,0,1-.962-.5,1.324,1.324,0,0,1,.009-2.044,2.66,2.66,0,0,1,3.265-.022,1.334,1.334,0,0,1-.013,2.112,2.332,2.332,0,0,1-.947.465c-.087.023-.212,0-.128.161s-.164.446.172.506a4.405,4.405,0,0,1,1.712.69c.105.071.2.2.322.024.108-.155.377-.234.2-.515a1.928,1.928,0,0,1-.29-.91,1.312,1.312,0,0,1,1.42-1.493,2.646,2.646,0,0,1,2.338,2.2,1.367,1.367,0,0,1-1.8,1.522,1.666,1.666,0,0,1-.581-.239c-.161-.117-.25-.071-.391.05-.215.184-.241.315-.064.558a3.641,3.641,0,0,1,.633,1.591c.02.12.033.241.185.193s.41.166.5-.149a2.278,2.278,0,0,1,.5-.964,1.324,1.324,0,0,1,2.044,0,2.648,2.648,0,0,1,.007,3.289,1.325,1.325,0,0,1-2.066-.006,1.846,1.846,0,0,1-.456-.875c-.068-.358-.328-.19-.514-.223-.217-.039-.174.132-.2.253a3.973,3.973,0,0,1-.846,1.822c0-.006,0,.019.01.034.295.373.6.319,1.015.14a1.374,1.374,0,0,1,1.99.819,1.476,1.476,0,0,1,.01.791,2.64,2.64,0,0,1-1.966,1.973,1.374,1.374,0,0,1-1.713-1.768,1.757,1.757,0,0,1,.223-.551c.194-.282-.044-.385-.172-.55-.167-.215-.27-.018-.377.052a4.124,4.124,0,0,1-1.657.648c-.144.021-.174.073-.181.207-.014.269-.036.455.341.548a1.554,1.554,0,0,1,1.262,1.446,1.628,1.628,0,0,1-1.257,1.462,2.686,2.686,0,0,1-2.011-.109,1.418,1.418,0,0,1-.03-2.694,1.01,1.01,0,0,1,.339-.129c.317-.029.287-.238.3-.465.014-.281-.183-.249-.347-.287a4.335,4.335,0,0,1-1.518-.65c-.117-.081-.23-.207-.356-.018-.1.15-.4.216-.187.5a1.629,1.629,0,0,1,.268.71,1.351,1.351,0,0,1-1.569,1.679A2.7,2.7,0,0,1,1.6,185.074,1.363,1.363,0,0,1,3.4,183.563a3.264,3.264,0,0,1,.525.2.531.531,0,0,0,.666-.253c.028-.082-.035-.122-.07-.171a4.136,4.136,0,0,1-.723-1.733c-.028-.17-.113-.233-.27-.205s-.375-.112-.433.2a1.9,1.9,0,0,1-.446.881,1.339,1.339,0,0,1-2.114,0A4.515,4.515,0,0,1,0,181.4Zm4.8.543a3.2,3.2,0,1,0,3.189-3.208A3.209,3.209,0,0,0,4.8,180.877M8,173.934a1.44,1.44,0,0,0-.9.272c-.221.175-.219.335-.01.518a1.639,1.639,0,0,0,1.8.008c.223-.189.222-.359-.019-.539A1.46,1.46,0,0,0,8,173.934m-6.937,6.881a1.5,1.5,0,0,0,.247.917c.186.259.364.262.559.022a1.642,1.642,0,0,0,0-1.778c-.188-.226-.359-.228-.54.007a1.432,1.432,0,0,0-.262.832m12.8.034a1.478,1.478,0,0,0,.249.884c.187.258.364.26.559.018a1.644,1.644,0,0,0-.007-1.778c-.188-.225-.36-.226-.539.011a1.44,1.44,0,0,0-.261.865M8,187.8a1.443,1.443,0,0,0,.9-.277c.218-.175.212-.337,0-.518a1.636,1.636,0,0,0-1.8,0c-.212.184-.216.343,0,.518a1.443,1.443,0,0,0,.9.275m4-1.594a1.574,1.574,0,0,0,1.346-1.326c0-.23-.11-.318-.327-.312a1.607,1.607,0,0,0-1.311,1.316c-.006.214.073.344.292.321m-9.044-9.05a1.584,1.584,0,0,0,1.34-1.306c.007-.239-.1-.34-.341-.329a1.624,1.624,0,0,0-1.295,1.292c-.013.239.079.357.3.342m10.028,0c.281.017.369-.066.358-.336a1.61,1.61,0,0,0-1.289-1.3c-.266-.014-.36.108-.342.358a1.6,1.6,0,0,0,1.273,1.273m-10,7.422c-.245-.015-.337.1-.325.343a1.62,1.62,0,0,0,1.294,1.292c.239.011.35-.086.342-.327a1.591,1.591,0,0,0-1.312-1.308" transform="translate(0 -157.467)" fill="#696b7e"/>
    <path id="Path_933" data-name="Path 933" d="M62.124,34.067c-.878-.416-1.777-.789-2.626-1.266a25.16,25.16,0,0,1-2.97-1.955c-.168-.128-.2-.217-.047-.38.176-.184.3-.508.494-.558s.409.253.612.4a22.118,22.118,0,0,0,4.374,2.506.524.524,0,0,0,.468,0,21.411,21.411,0,0,0,12.554-15.14,20.791,20.791,0,0,0,.541-5.02q-.011-3.832,0-7.665c0-.3-.01-.4-.376-.337a15.638,15.638,0,0,1-12.188-2.84c-.259-.186-.5-.522-.791-.5-.265.018-.512.32-.763.5a15.745,15.745,0,0,1-9.576,3.1,14.442,14.442,0,0,1-2.713-.271c-.187-.037-.269-.053-.268.191.011,2.91.006,5.821.015,8.731,0,.432.035.866.08,1.3.019.19.007.266-.215.291-.837.092-.839.1-.882-.739-.126-2.42-.032-4.842-.056-7.263-.012-1.177,0-2.355,0-3.533V3.27c.9.176,1.755.392,2.64.481a14.58,14.58,0,0,0,9.832-2.438c.581-.387,1.147-.8,1.705-1.219A.317.317,0,0,1,62.423.1a24.156,24.156,0,0,0,3.1,2.059A14.641,14.641,0,0,0,75.761,3.446c.259-.059.52-.11.828-.175v.358q0,4.549,0,9.1a22.693,22.693,0,0,1-14.133,21.23,2.018,2.018,0,0,0-.2.11Z" transform="translate(-43.525 0)" fill="#696b7e"/>
    <path id="Path_934" data-name="Path 934" d="M83.542,57.2V31.2c-.431.244-.845.491-1.271.715a17.514,17.514,0,0,1-9.1,2.039c-.216-.01-.279.035-.278.259.012,2.122.007,4.244.022,6.365,0,.229-.067.278-.275.288-.8.039-.806.045-.807-.767q0-3.449,0-6.9c0-.415,0-.412.4-.373A16.792,16.792,0,0,0,80.5,31.583a16.3,16.3,0,0,0,3.345-1.9.339.339,0,0,1,.484-.013,16.772,16.772,0,0,0,8.515,3.188A15.308,15.308,0,0,0,96,32.817c.29-.035.365.03.363.333-.015,2.211-.005,4.421-.009,6.632A20.6,20.6,0,0,1,84.334,58.59a.5.5,0,0,1-.467.008,22.529,22.529,0,0,1-3.911-2.32c-.208-.154-.218-.252-.049-.429s.282-.483.473-.534.39.236.585.374a19.4,19.4,0,0,0,2.32,1.427c.074.038.141.112.256.087m1.1-.006c.091.036.14-.021.2-.052A19.27,19.27,0,0,0,95.271,40.3c.1-2.017.014-4.042.024-6.063,0-.224-.036-.3-.285-.287a17.588,17.588,0,0,1-10.084-2.6c-.088-.054-.163-.153-.285-.129Z" transform="translate(-65.427 -26.939)" fill="#696b7e"/>
  </g>
</svg>
