<svg xmlns="http://www.w3.org/2000/svg" width="14" height="14" viewBox="0 0 14 14">
  <path id="sun" d="M13.417,6.417h-2.38a4.039,4.039,0,0,0-.25-.937l2.057-1.192a.583.583,0,1,0-.583-1.01L10.2,4.471a4.12,4.12,0,0,0-.67-.671l1.193-2.06a.583.583,0,0,0-1.01-.583L8.521,3.214a4.025,4.025,0,0,0-.937-.25V.583a.583.583,0,1,0-1.167,0v2.38a4.025,4.025,0,0,0-.937.25L4.287,1.156a.583.583,0,0,0-1.01.583L4.471,3.8a4.119,4.119,0,0,0-.67.671L1.741,3.277a.583.583,0,1,0-.583,1.01L3.214,5.479a4.039,4.039,0,0,0-.25.937H.583a.583.583,0,1,0,0,1.167h2.38a4.039,4.039,0,0,0,.25.937L1.156,9.713a.583.583,0,1,0,.583,1.01L3.8,9.529a4.119,4.119,0,0,0,.67.671l-1.192,2.06a.583.583,0,0,0,1.01.583l1.192-2.057a4.052,4.052,0,0,0,.937.251v2.38a.583.583,0,0,0,1.167,0v-2.38a4.052,4.052,0,0,0,.937-.25l1.192,2.057a.583.583,0,0,0,1.01-.583L9.529,10.2a4.12,4.12,0,0,0,.67-.671l2.059,1.194a.583.583,0,1,0,.583-1.01L10.785,8.522a4.039,4.039,0,0,0,.252-.939h2.38a.583.583,0,0,0,0-1.167Z" fill="#fc0"/>
</svg>
