<svg xmlns="http://www.w3.org/2000/svg" width="97.69" height="97.69" viewBox="0 0 97.69 97.69">
  <g id="Group_1422" data-name="Group 1422" transform="translate(11 11)">
    <g id="Group_11" data-name="Group 11" transform="translate(-11 -11)">
      <rect id="Rectangle" width="81.131" height="81.131" rx="40.566" transform="translate(8.28 8.28)" fill="#fff"/>
      <g id="Rectangle-2" data-name="Rectangle" transform="translate(0 0)" fill="none" stroke="#fff" stroke-miterlimit="10" stroke-width="1">
        <rect width="97.69" height="97.69" rx="48.845" stroke="none"/>
        <rect x="0.5" y="0.5" width="96.69" height="96.69" rx="48.345" fill="none"/>
      </g>
    </g>
    <path id="twitter" d="M36.024,51.465a15.4,15.4,0,0,1-4.255,1.166,7.344,7.344,0,0,0,3.249-4.082,14.758,14.758,0,0,1-4.683,1.788,7.385,7.385,0,0,0-12.775,5.05,7.6,7.6,0,0,0,.171,1.684A20.9,20.9,0,0,1,2.508,49.346a7.387,7.387,0,0,0,2.269,9.871,7.293,7.293,0,0,1-3.337-.91v.081a7.419,7.419,0,0,0,5.917,7.257,7.371,7.371,0,0,1-1.936.243,6.532,6.532,0,0,1-1.4-.126,7.455,7.455,0,0,0,6.9,5.145,14.839,14.839,0,0,1-9.157,3.15A13.826,13.826,0,0,1,0,73.956,20.791,20.791,0,0,0,11.329,77.27c13.59,0,21.02-11.258,21.02-21.016,0-.326-.011-.642-.027-.955A14.733,14.733,0,0,0,36.024,51.465Z" transform="translate(20 -25)" fill="#0d8c60"/>
  </g>
</svg>
